<?xml version="1.0" encoding="UTF-8"?>
<svg id="Layer_1" data-name="Layer 1" xmlns="http://www.w3.org/2000/svg" viewBox="0 0 1012.86 1721.82">
  <defs>
    <style>
      .cls-1 {
        fill: none;
        stroke-width: 3px;
      }

      .cls-1, .cls-2 {
        stroke: #f2d8a7;
        stroke-miterlimit: 10;
      }

      .cls-3 {
        fill: #006837;
      }

      .cls-4, .cls-2 {
        fill: #f2d8a7;
      }

      .cls-2 {
        stroke-width: 2px;
      }

      .cls-5 {
        opacity: .58;
      }

      .cls-6 {
        fill: #8c3a3a;
      }
    </style>
  </defs>
  <path class="cls-6" d="M.7,496.84s169.28-206.97,167.37-354.9V0H.7v496.84"/>
  <g>
    <rect class="cls-6" x="2.29" y="37.45" width="1009.07" height="1682.87" rx="457.67" ry="457.67"/>
    <path class="cls-4" d="M1012.86,1262.65v-5.6c0-2.25,0-4.5,0-6.74,0-3.08,0-6.15,0-9.23s0-7.7,0-11.54c0-4.57,0-9.14,0-13.71v-15.74c0-5.85,0-11.69,0-17.54,0-6.45,0-12.9,0-19.35s0-13.96,0-20.94,0-14.92,0-22.38c0-7.89,0-15.79,0-23.68,0-8.24,0-16.48,0-24.73s0-17.23,0-25.84,0-17.8,0-26.7c0-9.14,0-18.28,0-27.42s0-18.58,0-27.88c0-9.48,0-18.95,0-28.43,0-9.57,0-19.14,0-28.71,0-9.62,0-19.23,0-28.85s0-19.15,0-28.72,0-19.13,0-28.69,0-18.93,0-28.4c0-9.32,0-18.64,0-27.95s0-18.25,0-27.37c0-8.84,0-17.68,0-26.52s0-17.18,0-25.76,0-16.49,0-24.74,0-15.72,0-23.57c0-7.42,0-14.84,0-22.26,0-6.91,0-13.81,0-20.72s0-12.81,0-19.21c0-5.82,0-11.64,0-17.46,0-5.19,0-10.38,0-15.57,0-4.49,0-8.99,0-13.48,0-3.79,0-7.57,0-11.36,0-3.01,0-6.02,0-9.03,0-2.19,0-4.37,0-6.56v-3.93c0-1.52,0-3.04-.01-4.56-.1-13.47-.79-26.93-2.07-40.33s-3.1-26.38-5.51-39.43-5.31-25.64-8.79-38.26c-3.43-12.44-7.4-24.73-11.88-36.83-4.47-12.08-9.46-23.97-14.93-35.63-5.43-11.58-11.35-22.93-17.74-34.01s-13.18-21.81-20.43-32.29c-7.24-10.46-14.92-20.63-22.99-30.46-8.02-9.77-16.43-19.21-25.22-28.29s-18.02-17.87-27.56-26.24-19.47-16.37-29.69-23.94c-10.22-7.58-20.76-14.74-31.57-21.45s-21.98-13.01-33.35-18.81-23.04-11.14-34.88-15.99c-11.95-4.89-24.12-9.28-36.45-13.13-12.44-3.89-25.05-7.24-37.78-10.05s-25.8-5.08-38.84-6.79-26.6-2.9-39.97-3.46c-7.49-.32-14.99-.41-22.49-.41-6.23,0-12.45,0-18.68,0-9.2,0-18.39,0-27.59,0s-17.8,0-26.69,0c-5.45,0-10.9,0-16.35,0-9.15,0-18.3.22-27.44.73-13.34.76-26.65,2.11-39.87,4.02-13.02,1.89-25.96,4.34-38.77,7.35s-25.1,6.48-37.41,10.51c-12.28,4.03-24.38,8.59-36.27,13.63-11.8,5.01-23.39,10.51-34.73,16.5s-22.32,12.38-33.07,19.26c-10.72,6.85-21.15,14.15-31.26,21.86s-19.83,15.75-29.24,24.22c-9.43,8.49-18.51,17.36-27.22,26.59-8.71,9.24-17.03,18.83-24.95,28.75-7.94,9.95-15.49,20.21-22.59,30.78s-13.73,21.36-19.91,32.44-12.01,22.61-17.29,34.28-10.15,23.71-14.46,35.86-8.15,24.65-11.43,37.21c-3.29,12.63-6.04,25.41-8.23,38.28s-3.89,26.33-4.97,39.59c-1.01,12.41-1.51,24.85-1.52,37.3,0,.55,0,1.1,0,1.64v4.38c0,2.31,0,4.63,0,6.94,0,3.14,0,6.28,0,9.41s0,7.81,0,11.72c0,4.63,0,9.25,0,13.88s0,10.59,0,15.89c0,5.89,0,11.79,0,17.68,0,6.49,0,12.98,0,19.48s0,14.04,0,21.05c0,7.5,0,14.99,0,22.49,0,7.89,0,15.78,0,23.67,0,8.3,0,16.61,0,24.91,0,8.64,0,17.28,0,25.91,0,8.92,0,17.84,0,26.77s0,18.24,0,27.35,0,18.69,0,28.03,0,18.97,0,28.45c0,9.58,0,19.15,0,28.73s0,19.24,0,28.85,0,19.14,0,28.71,0,19.12,0,28.67,0,18.91,0,28.37,0,18.61,0,27.91,0,18.21,0,27.32,0,17.64,0,26.46,0,17.13,0,25.69c0,8.22,0,16.44,0,24.66,0,7.83,0,15.65,0,23.48,0,7.35,0,14.71,0,22.06s0,13.79,0,20.69,0,12.72,0,19.08c0,5.77,0,11.55,0,17.32,0,5.12,0,10.24,0,15.35,0,4.46,0,8.92,0,13.38,0,3.73,0,7.46,0,11.18s0,5.9,0,8.84c0,2.12,0,4.24,0,6.36,0,1.24,0,2.48,0,3.72,0,2.51.01,5.02.05,7.54.19,13.45.97,26.89,2.35,40.26,1.36,13.19,3.28,26.32,5.77,39.35s5.48,25.58,9.04,38.16,7.56,24.66,12.11,36.73c4.55,12.04,9.61,23.9,15.15,35.51,5.51,11.54,11.5,22.85,17.95,33.88s13.31,21.72,20.63,32.15c7.31,10.41,15.05,20.53,23.18,30.31,8.08,9.72,16.56,19.1,25.4,28.12,8.88,9.06,18.14,17.76,27.73,26.06,9.62,8.32,19.58,16.25,29.84,23.76s20.76,14.55,31.57,21.16,22.07,12.88,33.48,18.61,23.22,11.05,35.15,15.85c11.99,4.82,24.19,9.12,36.55,12.9,12.48,3.81,25.12,7.08,37.87,9.8s25.86,4.92,38.92,6.54,26.66,2.72,40.04,3.19c6.75.24,13.5.29,20.25.29s13.15,0,19.72,0c9.29,0,18.59,0,27.88,0,8.74,0,17.48,0,26.23,0,5.04,0,10.08,0,15.13,0,10.02,0,20.03-.29,30.03-.92,13.32-.85,26.6-2.28,39.8-4.29s25.91-4.51,38.68-7.61,25.03-6.64,37.31-10.76c12.24-4.11,24.31-8.74,36.16-13.86,11.76-5.08,23.31-10.66,34.6-16.72,11.19-6,22.14-12.47,32.8-19.38s21.05-14.28,31.12-22.05c10.06-7.77,19.81-15.94,29.21-24.51,9.38-8.55,18.4-17.48,27.05-26.77,8.65-9.29,16.91-18.94,24.77-28.91,7.85-9.96,15.3-20.23,22.3-30.79s13.66-21.54,19.8-32.71c6.17-11.22,11.87-22.7,17.07-34.4s10-23.79,14.23-35.98c4.26-12.27,8-24.72,11.19-37.31,3.21-12.67,5.87-25.48,7.98-38.37,2.14-13.15,3.72-26.39,4.71-39.67.85-11.37,1.27-22.77,1.27-34.17,0-1.93-3-1.93-3,0,0,13.43-.59,26.86-1.77,40.23-1.16,13.14-2.89,26.23-5.2,39.23-2.29,12.9-5.15,25.7-8.55,38.35-3.35,12.47-7.24,24.79-11.65,36.93s-9.24,23.86-14.62,35.47-11.19,22.9-17.49,33.97c-6.3,11.08-13.06,21.89-20.26,32.41s-14.7,20.56-22.68,30.36-16.35,19.28-25.1,28.39-17.87,17.87-27.33,26.24-19.25,16.35-29.37,23.91-20.61,14.75-31.35,21.47-21.92,13.1-33.27,18.94-22.92,11.22-34.71,16.08-23.98,9.3-36.24,13.17c-12.37,3.91-24.91,7.29-37.57,10.12-12.84,2.87-25.81,5.2-38.85,6.93-13.2,1.75-26.47,2.92-39.78,3.52-7.69.34-15.39.45-23.09.45-6.07,0-12.14,0-18.21,0-9.11,0-18.23,0-27.34,0-8.96,0-17.92,0-26.88,0-5.62,0-11.25,0-16.87,0-8.72,0-17.44-.18-26.16-.65-13.25-.71-26.48-1.98-39.62-3.85s-25.87-4.26-38.63-7.23c-12.62-2.93-25.12-6.41-37.45-10.42-12.25-3.98-24.34-8.48-36.21-13.5-11.76-4.97-23.3-10.44-34.6-16.38s-22.24-12.3-32.96-19.12c-10.68-6.8-21.08-14.05-31.17-21.71-10.05-7.63-19.78-15.7-29.17-24.13-9.4-8.44-18.45-17.27-27.12-26.46s-17.05-18.81-24.98-28.72c-7.9-9.87-15.38-20.07-22.43-30.56s-13.73-21.36-19.91-32.44-11.96-22.52-17.22-34.12-10.11-23.65-14.4-35.77-8.09-24.55-11.35-37.06-6.02-25.42-8.2-38.29-3.83-26.15-4.88-39.32c-.97-12.12-1.44-24.28-1.45-36.44,0-.56,0-1.12,0-1.68v-4.42c0-2.32,0-4.65,0-6.97,0-3.13,0-6.27,0-9.4,0-3.89,0-7.79,0-11.68,0-4.61,0-9.21,0-13.82s0-10.59,0-15.89c0-5.89,0-11.79,0-17.68s0-12.93,0-19.39c0-6.98,0-13.97,0-20.95,0-7.46,0-14.92,0-22.38,0-7.92,0-15.84,0-23.76,0-8.27,0-16.53,0-24.8s0-17.19,0-25.79,0-17.76,0-26.64,0-18.23,0-27.34c0-9.34,0-18.68,0-28.02s0-18.88,0-28.32,0-19.06,0-28.6,0-19.15,0-28.73c0-9.57,0-19.14,0-28.71s0-19.04,0-28.56c0-9.46,0-18.92,0-28.38s0-18.54,0-27.81,0-18.15,0-27.23c0-8.83,0-17.67,0-26.5,0-8.58,0-17.16,0-25.73s0-16.4,0-24.6c0-7.81,0-15.63,0-23.44s0-14.76,0-22.14,0-13.79,0-20.69c0-6.37,0-12.73,0-19.1,0-5.81,0-11.63,0-17.44,0-5.16,0-10.32,0-15.48,0-4.49,0-8.97,0-13.46,0-3.77,0-7.53,0-11.3s0-5.99,0-8.99c0-2.19,0-4.37,0-6.56v-3.93c0-1.46,0-2.92.01-4.38.09-13.41.77-26.82,2.04-40.17,1.25-13.12,3.07-26.18,5.47-39.15s5.29-25.53,8.76-38.09,7.43-24.84,11.94-36.99,9.4-23.79,14.85-35.36,11.33-22.81,17.7-33.84c6.34-10.98,13.14-21.71,20.37-32.13s14.89-20.56,22.96-30.35,16.47-19.17,25.28-28.23,17.98-17.76,27.5-26.07,19.36-16.22,29.52-23.72,20.71-14.62,31.49-21.27,21.92-12.9,33.26-18.66,23.1-11.12,34.98-15.93,24.06-9.14,36.35-12.94,24.97-7.12,37.66-9.87,25.76-5,38.77-6.65c13.28-1.68,26.64-2.77,40.02-3.27,6.94-.26,13.87-.32,20.81-.32,6.42,0,12.85,0,19.27,0,9.22,0,18.43,0,27.65,0,8.81,0,17.63,0,26.44,0,5.22,0,10.43,0,15.65,0,9.58,0,19.16.25,28.72.83,13.23.8,26.43,2.16,39.55,4.12,12.95,1.94,25.81,4.43,38.55,7.48s25.06,6.58,37.35,10.66c12.17,4.04,24.17,8.6,35.95,13.67s23.33,10.63,34.63,16.67c11.2,5.99,22.16,12.44,32.83,19.33,10.64,6.87,20.99,14.18,31.02,21.91s19.68,15.82,29.01,24.32c9.34,8.5,18.34,17.39,26.95,26.63,8.62,9.24,16.86,18.84,24.7,28.75,7.87,9.96,15.32,20.26,22.34,30.84s13.59,21.45,19.71,32.58c6.14,11.17,11.82,22.6,17,34.25,5.21,11.7,9.91,23.63,14.11,35.73,4.25,12.27,7.98,24.73,11.16,37.32,3.2,12.67,5.85,25.48,7.95,38.38s3.65,26.21,4.61,39.4c.81,11.1,1.2,22.22,1.21,33.34,0,.63,0,1.26,0,1.9v4.6c0,2.4,0,4.8,0,7.19s0,6.39,0,9.58c0,3.95,0,7.9,0,11.86s0,9.32,0,13.98,0,10.69,0,16.04c0,5.94,0,11.88,0,17.82s0,13.01,0,19.52c0,7.02,0,14.05,0,21.07,0,7.49,0,14.99,0,22.48,0,7.92,0,15.83,0,23.75,0,8.33,0,16.66,0,24.98,0,8.62,0,17.24,0,25.86s0,17.8,0,26.7,0,18.26,0,27.39c0,9.31,0,18.63,0,27.94s0,18.98,0,28.47,0,19.07,0,28.61c0,9.58,0,19.15,0,28.73s0,19.14,0,28.71,0,19.03,0,28.54,0,18.82,0,28.23c0,9.3,0,18.6,0,27.9s0,18.12,0,27.18,0,17.62,0,26.43c0,8.52,0,17.03,0,25.55,0,8.21,0,16.42,0,24.63s0,15.56,0,23.35c0,7.34,0,14.69,0,22.03s0,13.72,0,20.57,0,12.65,0,18.97,0,11.48,0,17.23c0,5.13,0,10.27,0,15.4,0,4.43,0,8.86,0,13.3,0,3.71,0,7.41,0,11.12,0,2.93,0,5.87,0,8.8v6.36c0,1.24,0,2.48,0,3.72v1.01c0,1.93,3,1.93,3,0Z"/>
  </g>
  <path class="cls-4" d="M919.39,1237.65v-4.54c0-4.35,0-8.69,0-13.04,0-6.86,0-13.72,0-20.59,0-9.09,0-18.18,0-27.28,0-11.03,0-22.06,0-33.09,0-12.67,0-25.34,0-38.02,0-14.02,0-28.04,0-42.06,0-15.08,0-30.15,0-45.23,0-15.84,0-31.68,0-47.52s0-32.62,0-48.93,0-32.97,0-49.45c0-16.37,0-32.73,0-49.1,0-15.96,0-31.91,0-47.87,0-15.25,0-30.5,0-45.75,0-14.25,0-28.51,0-42.76,0-12.96,0-25.92,0-38.88,0-11.38,0-22.75,0-34.13,0-9.5,0-18.99,0-28.49,0-7.32,0-14.65,0-21.97,0-4.86,0-9.72,0-14.58,0-2.1,0-4.2,0-6.3,0-18.43-1.31-36.85-3.92-55.1-3.17-22.2-8.3-44.11-15.31-65.41-6.89-20.94-15.6-41.3-25.96-60.76s-22.15-37.65-35.49-54.93c-13.3-17.23-28.02-33.36-43.99-48.15-15.98-14.8-33.2-28.28-51.42-40.23s-37.64-22.48-57.72-31.22-41.46-15.99-63.05-21.22-44.61-8.71-67.27-10.09c-14.64-.89-29.31-.71-43.98-.71-13.57,0-27.17-.24-40.74.2-22.8.72-45.54,3.47-67.85,8.2-21.76,4.62-43.12,11.14-63.75,19.47-20.36,8.22-40.02,18.15-58.7,29.69s-36.13,24.48-52.51,38.85c-16.34,14.34-31.49,30.04-45.23,46.9-13.79,16.92-26.18,34.97-36.96,53.94-10.87,19.13-20.1,39.2-27.57,59.9s-13.31,42.7-17.11,64.72-5.62,43.73-5.63,65.76c0,1.63,0,3.25,0,4.88,0,4.43,0,8.87,0,13.3,0,6.95,0,13.89,0,20.84,0,9.17,0,18.33,0,27.5,0,11.09,0,22.18,0,33.28,0,12.72,0,25.45,0,38.17,0,14.06,0,28.13,0,42.19,0,15.11,0,30.22,0,45.33,0,15.86,0,31.72,0,47.58s0,32.64,0,48.96,0,32.97,0,49.46,0,32.71,0,49.07,0,31.87,0,47.81c0,15.22,0,30.44,0,45.66,0,14.21,0,28.42,0,42.64,0,12.91,0,25.82,0,38.73,0,11.31,0,22.63,0,33.94,0,9.43,0,18.85,0,28.28,0,7.24,0,14.49,0,21.73,0,4.77,0,9.53,0,14.3,0,2,0,3.99,0,5.99,0,19.22,1.43,38.41,4.26,57.42,3.31,22.16,8.57,44.02,15.71,65.26,7.02,20.89,15.84,41.18,26.31,60.57,10.38,19.22,22.4,37.53,35.84,54.75,13.38,17.14,28.19,33.16,44.24,47.84s33.37,28.09,51.66,39.93c18.39,11.91,37.79,22.26,57.93,30.88,20.43,8.75,41.58,15.75,63.21,20.85,22.12,5.21,44.71,8.45,67.4,9.68,14.41.78,28.85.57,43.27.57,13.81,0,27.66.24,41.46-.28,22.77-.87,45.47-3.75,67.73-8.62,21.72-4.75,43.02-11.41,63.59-19.85,20.3-8.34,39.9-18.38,58.5-30.03,18.47-11.56,35.98-24.69,52.28-39.16,16.26-14.44,31.31-30.23,44.95-47.16,13.69-17,25.98-35.13,36.65-54.17s19.88-39.34,27.22-60.09c7.46-21.08,13.06-42.82,16.72-64.88,3.47-20.94,5.22-42.16,5.23-63.39,0-1.93-3-1.93-3,0-.01,22.9-2.02,45.79-6.11,68.33-3.97,21.85-9.85,43.35-17.55,64.19s-17.02,40.52-28.05,59.51c-10.88,18.74-23.33,36.57-37.19,53.23-13.91,16.71-29.21,32.26-45.7,46.44s-34.04,26.85-52.59,38.03c-18.69,11.26-38.33,20.95-58.66,28.87-20.76,8.09-42.22,14.36-64.07,18.71-22.28,4.44-44.94,6.85-67.65,7.26-13.03.24-26.08.06-39.11.06-15.08,0-30.14.07-45.2-1.04-22.56-1.66-44.96-5.34-66.87-10.97-21.33-5.49-42.19-12.82-62.25-21.9s-38.9-19.66-56.95-31.85c-18.02-12.18-35-25.87-50.73-40.89-15.64-14.93-30.05-31.15-42.99-48.47-13.07-17.5-24.67-36.09-34.62-55.53s-18.29-39.91-24.78-60.86-11.41-43.49-14.17-65.77c-1.96-15.85-2.91-31.81-2.91-47.78,0-2.39,0-4.77,0-7.16,0-5.12,0-10.24,0-15.36,0-7.51,0-15.03,0-22.54s0-19.38,0-29.07c0-11.48,0-22.96,0-34.43,0-13.09,0-26.18,0-39.27s0-28.56,0-42.84c0-15.24,0-30.49,0-45.73,0-16,0-32,0-48s0-32.61,0-48.91,0-32.96,0-49.45,0-32.41,0-48.61,0-31.51,0-47.27c0-14.98,0-29.96,0-44.93,0-13.87,0-27.75,0-41.62,0-12.58,0-25.16,0-37.74,0-10.87,0-21.74,0-32.61,0-8.98,0-17.95,0-26.93,0-6.7,0-13.4,0-20.11,0-4.19,0-8.38,0-12.57,0-2.33,0-4.66.01-6.99.17-22.76,2.33-45.49,6.54-67.86s10.17-43.48,18.05-64.34c7.71-20.43,17.2-40.18,28.28-59,11.05-18.77,23.67-36.6,37.72-53.25,13.95-16.54,29.27-31.91,45.76-45.91,16.51-14.03,34.21-26.65,52.83-37.73s38.67-20.83,59.17-28.65,42.14-14.01,63.92-18.2,45.27-6.6,68.12-6.85c12.65-.14,25.3-.02,37.94-.02,15.46,0,30.9,0,46.33,1.25,22.41,1.81,44.65,5.62,66.39,11.36s42.08,13.07,62.08,22.27c19.87,9.15,38.96,20,57.01,32.37,17.84,12.23,34.65,25.97,50.21,41s30.01,31.5,42.9,48.99,24.31,36.08,34.1,55.49c9.93,19.7,18.14,40.25,24.52,61.36s11.06,43.38,13.67,65.59c1.77,15.1,2.62,30.29,2.62,45.49v7.52c0,5.19,0,10.39,0,15.58,0,7.64,0,15.28,0,22.91,0,9.72,0,19.43,0,29.15,0,11.57,0,23.14,0,34.71,0,13.11,0,26.22,0,39.33,0,14.32,0,28.64,0,42.96,0,15.35,0,30.7,0,46.06,0,15.94,0,31.88,0,47.82,0,16.4,0,32.79,0,49.19,0,16.4,0,32.79,0,49.19s0,32.38,0,48.57c0,15.77,0,31.55,0,47.32v44.72c0,13.9,0,27.8,0,41.7,0,12.46,0,24.92,0,37.38v32.57c0,8.85,0,17.7,0,26.55,0,6.62,0,13.24,0,19.85v12.33c0,1.28,0,2.55,0,3.83,0,1.93,3,1.93,3,0Z"/>
  <path class="cls-4" d="M121.77,1232.62c0-1.42,0-2.85,0-4.27,0-4.06,0-8.12,0-12.19,0-6.47,0-12.95,0-19.42,0-8.55,0-17.1,0-25.65,0-10.39,0-20.77,0-31.16,0-12.02,0-24.04,0-36.06,0-13.26,0-26.53,0-39.79,0-14.38,0-28.75,0-43.13,0-15.07,0-30.14,0-45.21s0-31.14,0-46.7c0-15.88,0-31.77,0-47.65s0-31.53,0-47.3c0-15.54,0-31.09,0-46.63s0-29.78,0-44.67c0-14.05,0-28.1,0-42.15,0-13.01,0-26.02,0-39.04,0-11.57,0-23.13,0-34.7,0-9.98,0-19.95,0-29.93,0-8.01,0-16.02,0-24.03,0-5.84,0-11.67,0-17.51,0-3.4,0-6.81,0-10.21,0-6.63.1-13.26.42-19.89,1.03-21.83,4.02-43.56,8.94-64.85,4.8-20.8,11.42-41.19,19.79-60.83s18.15-37.98,29.56-55.65,24.27-34.29,38.46-49.75c14.12-15.37,29.52-29.56,45.99-42.37s34.15-24.27,52.6-34.14c18.73-10.02,38.32-18.41,58.5-25.03,20.45-6.71,41.49-11.61,62.8-14.63,18.25-2.58,36.6-3.58,55.02-3.58,12.6,0,25.21-.14,37.81.04,21.92.31,43.8,2.57,65.31,6.79,21.1,4.14,41.82,10.15,61.86,17.93,19.62,7.61,38.58,16.95,56.61,27.81s35.06,23.2,50.96,36.92c15.8,13.63,30.45,28.59,43.76,44.66,13.33,16.1,25.3,33.34,35.73,51.45,10.58,18.36,19.58,37.63,26.82,57.54,7.33,20.14,12.89,40.93,16.59,62.04,3.65,20.86,5.45,42.04,5.46,63.22,0,1.53,0,3.05,0,4.58,0,4.15,0,8.31,0,12.46,0,6.56,0,13.11,0,19.67,0,8.62,0,17.24,0,25.86,0,10.51,0,21.01,0,31.52,0,12.01,0,24.03,0,36.04,0,13.31,0,26.61,0,39.92,0,14.41,0,28.82,0,43.23s0,30.18,0,45.28c0,15.66,0,31.33,0,46.99s0,31.61,0,47.41c0,15.76,0,31.52,0,47.28,0,15.53,0,31.05,0,46.58,0,14.86,0,29.73,0,44.59,0,14.05,0,28.1,0,42.15,0,12.93,0,25.86,0,38.79,0,11.51,0,23.02,0,34.54,0,9.91,0,19.82,0,29.73,0,7.93,0,15.87,0,23.8,0,5.75,0,11.5,0,17.25,0,3.31,0,6.62,0,9.93,0,7.37-.14,14.74-.54,22.11-1.18,21.86-4.32,43.59-9.4,64.89-4.93,20.69-11.66,40.97-20.13,60.49s-18.38,37.85-29.89,55.44c-11.49,17.56-24.48,34.13-38.77,49.5-14.19,15.27-29.66,29.38-46.21,42.06-16.72,12.81-34.52,24.2-53.16,34.01s-38.26,18.05-58.39,24.52c-20.51,6.58-41.6,11.36-62.95,14.23-17.86,2.4-35.8,3.25-53.8,3.25-13.03,0-26.08.19-39.1-.08-22-.46-43.96-2.88-65.52-7.29-20.94-4.28-41.5-10.39-61.37-18.25-19.57-7.74-38.45-17.19-56.41-28.16-17.92-10.95-34.91-23.42-50.72-37.23-15.71-13.73-30.28-28.78-43.49-44.93s-25.22-33.68-35.58-51.97-19.22-37.58-26.31-57.44c-7.21-20.21-12.64-41.04-16.2-62.2-3.38-20.1-5.04-40.47-5.05-60.85,0-1.93-3-1.93-3,0,.01,22.13,1.98,44.25,5.93,66.03,3.83,21.19,9.55,42.04,17.04,62.23s16.48,39.15,27.15,57.49c10.59,18.19,22.73,35.48,36.21,51.64s28.23,31.08,44.17,44.72c15.99,13.68,33.12,26.02,51.17,36.83,18.19,10.89,37.32,20.21,57.1,27.84s40.8,13.71,61.91,17.82c21.67,4.21,43.72,6.48,65.79,6.78,12.59.17,25.18.03,37.77.03,18.59,0,37.09-1.08,55.51-3.69,21.42-3.03,42.57-7.97,63.12-14.73,20.2-6.65,39.84-15.06,58.6-25.07s36.31-21.45,52.98-34.36,32.09-27.1,46.29-42.54c14.23-15.47,27.17-32.14,38.62-49.77,11.51-17.73,21.51-36.43,29.83-55.86,8.44-19.71,15.19-40.12,20.08-61,5.01-21.35,8.09-43.16,9.23-65.06.37-7.16.5-14.33.5-21.51,0-3.35,0-6.7,0-10.05,0-5.82,0-11.65,0-17.47,0-8.03,0-16.05,0-24.08,0-9.96,0-19.91,0-29.87,0-11.62,0-23.23,0-34.85,0-13.01,0-26.01,0-39.02,0-14.12,0-28.25,0-42.37,0-14.97,0-29.94,0-44.91s0-31.09,0-46.64c0-15.85,0-31.7,0-47.55s0-31.77,0-47.65c0-15.65,0-31.29,0-46.94,0-15.14,0-30.27,0-45.41,0-14.36,0-28.71,0-43.07,0-13.31,0-26.61,0-39.92,0-11.98,0-23.97,0-35.95,0-10.39,0-20.78,0-31.17,0-8.53,0-17.05,0-25.58,0-6.39,0-12.78,0-19.17,0-3.98,0-7.97,0-11.95,0-2.25,0-4.5-.01-6.75-.17-22.1-2.31-44.18-6.41-65.9-3.99-21.14-9.85-41.93-17.49-62.05-7.53-19.83-16.75-39.01-27.55-57.26s-22.97-35.31-36.57-51.37-28.37-30.81-44.36-44.3c-16.08-13.57-33.29-25.81-51.42-36.5s-37.37-19.92-57.15-27.41c-20.12-7.62-40.92-13.46-62.07-17.43-21.72-4.08-43.81-6.2-65.91-6.35-12.1-.08-24.19,0-36.29,0-19.05,0-38.04,1.24-56.9,4.03-21.38,3.17-42.48,8.24-62.97,15.13-20.15,6.78-39.72,15.3-58.41,25.43s-36.17,21.67-52.75,34.68-31.92,27.29-46.02,42.82-26.98,32.31-38.31,50.01c-11.42,17.82-21.29,36.62-29.51,56.12-8.32,19.75-14.93,40.22-19.68,61.12-4.87,21.41-7.82,43.26-8.82,65.19-.29,6.43-.38,12.86-.38,19.29,0,3.45,0,6.89,0,10.34,0,5.91,0,11.82,0,17.73,0,8.1,0,16.2,0,24.3,0,10.02,0,20.04,0,30.07,0,11.67,0,23.34,0,35.02,0,13.05,0,26.1,0,39.15,0,14.16,0,28.32,0,42.48,0,15,0,29.99,0,44.99s0,31.12,0,46.68c0,15.86,0,31.71,0,47.57,0,15.88,0,31.76,0,47.64s0,31.26,0,46.89c0,15.11,0,30.23,0,45.34,0,14.32,0,28.65,0,42.97,0,13.26,0,26.52,0,39.78,0,11.93,0,23.86,0,35.79,0,10.33,0,20.65,0,30.98,0,8.45,0,16.9,0,25.36,0,6.31,0,12.61,0,18.92,0,3.89,0,7.78,0,11.67,0,1.21,0,2.42,0,3.64,0,1.93,3,1.93,3,0Z"/>
  <path class="cls-4" d="M146.14,1230.71c0-1.34,0-2.68,0-4.02,0-3.82,0-7.65,0-11.47v-18.3c0-8.07,0-16.14,0-24.2,0-9.88,0-19.75,0-29.63,0-11.36,0-22.73,0-34.09,0-12.63,0-25.26,0-37.89,0-13.65,0-27.3,0-40.95,0-14.42,0-28.84,0-43.27s0-29.9,0-44.85c0-15.23,0-30.46,0-45.69,0-15.26,0-30.53,0-45.79s0-30.1,0-45.16c0-14.63,0-29.27,0-43.9,0-13.85,0-27.7,0-41.55,0-12.97,0-25.94,0-38.91,0-11.71,0-23.41,0-35.12,0-10.32,0-20.64,0-30.97,0-8.58,0-17.16,0-25.74,0-6.68,0-13.37,0-20.05,0-4.47,0-8.94,0-13.41,0-2.06,0-4.12,0-6.18,0-15.46.98-30.91,3-46.24,2.72-20.67,7.34-41.1,13.72-60.94s14.18-38.21,23.7-56.21c9.48-17.92,20.49-35.04,32.9-51.07,12.3-15.9,25.97-30.75,40.78-44.35s30.95-26.09,47.97-37.03c17.02-10.95,34.99-20.46,53.64-28.32,19.03-8.02,38.79-14.34,58.94-18.87,20.52-4.61,41.43-7.34,62.44-8.17,12.88-.51,25.8-.28,38.69-.28,20.73,0,41.45,1.81,61.86,5.48,20.42,3.67,40.52,9.18,59.97,16.42s37.41,15.85,54.92,26.12c17.46,10.24,34.04,21.98,49.5,35.06s29.59,27.27,42.54,42.66,24.73,32.11,34.93,49.6c10.22,17.54,18.94,35.96,25.96,55,7.19,19.48,12.63,39.59,16.25,60.03s5.29,40.43,5.3,60.8c0,1.44,0,2.88,0,4.32,0,3.91,0,7.83,0,11.74,0,6.18,0,12.36,0,18.55,0,8.14,0,16.28,0,24.42,0,9.94,0,19.88,0,29.81,0,11.38,0,22.77,0,34.15,0,12.71,0,25.41,0,38.12,0,13.64,0,27.29,0,40.93,0,14.49,0,28.97,0,43.46,0,14.92,0,29.85,0,44.77,0,15.28,0,30.55,0,45.83,0,15.22,0,30.44,0,45.66,0,15.08,0,30.16,0,45.24,0,14.53,0,29.06,0,43.6s0,27.79,0,41.69c0,12.86,0,25.73,0,38.59,0,11.72,0,23.45,0,35.17,0,10.24,0,20.47,0,30.71,0,8.54,0,17.07,0,25.61,0,6.59,0,13.18,0,19.77,0,4.4,0,8.8,0,13.2,0,1.96,0,3.92,0,5.88,0,16.21-1.07,32.43-3.31,48.49-2.87,20.6-7.59,40.93-14.08,60.69-6.37,19.39-14.46,38.2-24.12,56.18s-20.65,34.8-33.12,50.71-26.23,30.67-41.16,44.22c-14.99,13.59-31.13,25.89-48.21,36.72-17.1,10.84-35.13,20.24-53.85,27.97-19.1,7.89-38.91,14.09-59.11,18.48s-41.53,7.06-62.57,7.75c-12.43.41-24.91.23-37.35.19-21.16-.06-42.3-2.02-63.1-5.91-20.38-3.81-40.42-9.45-59.81-16.81-18.97-7.21-37.29-16.09-54.72-26.47-17.39-10.36-33.89-22.2-49.26-35.38s-29.42-27.46-42.26-42.93c-12.94-15.58-24.53-32.28-34.61-49.84s-18.7-36.1-25.61-55.2c-7.06-19.54-12.37-39.71-15.85-60.19-3.27-19.3-4.88-38.86-4.89-58.44,0-1.93-3-1.93-3,0,.01,21.38,1.94,42.75,5.8,63.78,3.75,20.46,9.34,40.58,16.67,60.04s16.06,37.63,26.45,55.23c10.31,17.46,22.13,34.03,35.24,49.5,13.07,15.42,27.46,29.72,42.95,42.71,15.54,13.03,32.18,24.76,49.7,34.97,17.67,10.3,36.23,19.05,55.4,26.15,19.47,7.2,39.57,12.67,60.01,16.3,20.46,3.64,41.23,5.46,62.01,5.47,12.99,0,26.02.24,39.01-.29,21.21-.86,42.35-3.64,63.06-8.3,20.21-4.55,39.99-10.91,59.08-18.96,18.79-7.92,36.9-17.46,54.05-28.49,17.04-10.96,33.14-23.38,48.09-37.05,14.91-13.65,28.67-28.57,41.06-44.54,12.45-16.05,23.56-33.12,33.1-51.06,9.63-18.1,17.7-37.04,24.05-56.53,6.46-19.83,11.14-40.24,13.96-60.91,2.18-16,3.28-32.13,3.28-48.28,0-1.99,0-3.98,0-5.97,0-4.44,0-8.88,0-13.32,0-6.66,0-13.32,0-19.98,0-8.62,0-17.25,0-25.87,0-10.3,0-20.61,0-30.91,0-11.76,0-23.52,0-35.28,0-12.97,0-25.93,0-38.9,0-13.92,0-27.85,0-41.77,0-14.63,0-29.27,0-43.9s0-30.19,0-45.28c0-15.31,0-30.61,0-45.92s0-30.54,0-45.81c0-15.03,0-30.05,0-45.08,0-14.49,0-28.98,0-43.47,0-13.67,0-27.34,0-41,0-12.64,0-25.27,0-37.91,0-11.36,0-22.72,0-34.07,0-9.83,0-19.66,0-29.49,0-8.06,0-16.11,0-24.17,0-6.03,0-12.06,0-18.09,0-3.76,0-7.52,0-11.28,0-2.06,0-4.13,0-6.19-.15-21.29-2.22-42.58-6.2-63.5-3.88-20.42-9.59-40.49-17.04-59.89-7.34-19.13-16.33-37.62-26.87-55.19-10.42-17.39-22.34-33.88-35.55-49.26s-27.65-29.54-43.22-42.43-32.34-24.56-49.94-34.66-36.37-18.83-55.6-25.8-39.69-12.41-60.17-15.91-39.92-5.05-60.03-5.05c-13.69,0-27.4-.25-41.08.4-21.12,1.01-42.16,3.91-62.76,8.69s-39.93,11.18-58.97,19.34-36.84,17.72-53.94,28.88c-16.96,11.07-32.99,23.59-47.84,37.36s-28.49,28.79-40.81,44.85-23.33,33.26-32.75,51.24-17.47,37.17-23.69,56.72c-6.34,19.92-10.86,40.39-13.57,61.12-1.99,15.22-2.95,30.57-2.95,45.92,0,2.09,0,4.17,0,6.26,0,4.53,0,9.05,0,13.58,0,6.72,0,13.44,0,20.16,0,8.69,0,17.38,0,26.06,0,10.39,0,20.78,0,31.17,0,11.81,0,23.62,0,35.43,0,13.01,0,26.01,0,39.02,0,13.95,0,27.91,0,41.86,0,14.65,0,29.31,0,43.96,0,15.11,0,30.21,0,45.32,0,15.31,0,30.62,0,45.93s0,30.53,0,45.79,0,29.94,0,44.91c0,14.47,0,28.93,0,43.4,0,13.67,0,27.34,0,41.01,0,12.59,0,25.19,0,37.78,0,11.3,0,22.61,0,33.91,0,9.77,0,19.54,0,29.3,0,7.98,0,15.97,0,23.95,0,5.95,0,11.9,0,17.85,0,3.67,0,7.33,0,11,0,1.15,0,2.29,0,3.44,0,1.93,3,1.93,3,0Z"/>
  <path class="cls-4" d="M169.57,1232.75c0-1.26,0-2.52,0-3.78,0-3.61,0-7.21,0-10.82,0-5.77,0-11.53,0-17.3,0-7.64,0-15.28,0-22.92,0-9.37,0-18.75,0-28.12,0-10.78,0-21.56,0-32.33,0-12.08,0-24.16,0-36.24,0-13.02,0-26.04,0-39.06,0-13.88,0-27.77,0-41.65s0-28.74,0-43.11,0-29.58,0-44.37,0-29.65,0-44.47,0-29.59,0-44.39c0-14.38,0-28.76,0-43.15s0-27.81,0-41.71c0-13.05,0-26.09,0-39.14,0-12.11,0-24.22,0-36.33,0-10.82,0-21.63,0-32.45,0-9.39,0-18.79,0-28.18v-23.14c0-5.81,0-11.62,0-17.43v-11.05c0-1.33,0-2.66,0-3.99,0-20.01,1.81-40.01,5.46-59.69,3.66-19.72,9.14-39.1,16.35-57.81,7.13-18.51,15.97-36.35,26.32-53.27s21.91-32.48,34.91-47.11c13.06-14.7,27.42-28.25,42.86-40.43s31.88-22.91,49.18-32.13c17.57-9.38,35.99-17.14,54.98-23.17s39.06-10.44,59.09-12.86c10.31-1.25,20.69-2.01,31.08-2.28,6.51-.17,13.03-.11,19.55-.11s13.05-.05,19.57.13c10.33.28,20.64,1.05,30.89,2.31,20.14,2.46,40.06,6.85,59.39,13.03,18.87,6.03,37.17,13.78,54.63,23.12,17.38,9.3,33.95,20.14,49.4,32.39,15.33,12.15,29.58,25.64,42.56,40.27,13.06,14.73,24.8,30.62,35.04,47.43s19.03,34.6,26.1,53.01c7.23,18.83,12.72,38.33,16.36,58.17,3.57,19.46,5.33,39.23,5.33,59.02,0,1.36,0,2.72,0,4.07,0,3.69,0,7.39,0,11.08,0,5.83,0,11.65,0,17.48,0,7.73,0,15.46,0,23.19,0,9.41,0,18.81,0,28.22,0,10.86,0,21.72,0,32.58,0,12.09,0,24.17,0,36.26,0,13.09,0,26.18,0,39.27,0,13.83,0,27.66,0,41.49,0,14.47,0,28.93,0,43.4,0,14.72,0,29.43,0,44.15,0,14.91,0,29.81,0,44.72s0,29.41,0,44.12c0,14.45,0,28.89,0,43.34s0,27.6,0,41.4c0,13.09,0,26.17,0,39.26,0,12,0,24,0,36.01,0,10.83,0,21.65,0,32.48,0,9.31,0,18.61,0,27.92,0,7.67,0,15.33,0,23,0,5.72,0,11.44,0,17.15,0,3.61,0,7.22,0,10.82,0,1.35,0,2.7,0,4.05-.02,20.69-1.98,41.37-5.9,61.68-3.8,19.68-9.42,39-16.76,57.64-7.26,18.45-16.22,36.22-26.69,53.05-10.33,16.62-22.13,32.32-35.23,46.86-13.13,14.57-27.53,27.99-43,40.04-15.51,12.08-32.13,22.76-49.54,31.9-17.6,9.23-36.03,16.85-55.01,22.73s-39.27,10.2-59.41,12.49c-10.28,1.17-20.61,1.85-30.96,2.05-6.29.12-12.58.06-18.88.06-6.81,0-13.61.04-20.41-.2-10.31-.36-20.6-1.2-30.83-2.53-19.99-2.59-39.75-7.09-58.92-13.35-18.93-6.17-37.27-14.09-54.75-23.6-17.22-9.36-33.61-20.25-48.9-32.52-15.34-12.31-29.59-25.97-42.53-40.77-12.89-14.74-24.46-30.62-34.54-47.4s-18.92-34.93-25.9-53.51-12.39-38.23-15.89-58-4.96-37.89-4.97-56.99c0-1.93-3-1.93-3,0,.01,20.79,1.96,41.57,5.85,61.99,3.77,19.8,9.38,39.25,16.73,58.02,7.26,18.55,16.18,36.44,26.65,53.39,10.36,16.77,22.21,32.63,35.35,47.33,13.1,14.66,27.5,28.17,42.98,40.31,15.55,12.2,32.14,23.04,49.59,32.3s36.09,17.13,55.11,23.16c19.4,6.15,39.35,10.46,59.55,12.93,10.31,1.26,20.68,2.03,31.07,2.31,6.55.18,13.1.12,19.65.12s13.1.06,19.65-.12c10.38-.28,20.76-1.05,31.07-2.31,20.2-2.47,40.15-6.78,59.55-12.93,19.02-6.03,37.49-13.8,55.11-23.16s34.05-20.11,49.59-32.3c15.47-12.14,29.87-25.64,42.98-40.31s24.99-30.56,35.35-47.33c10.47-16.95,19.39-34.84,26.65-53.39s12.96-38.22,16.73-58.02c3.89-20.42,5.84-41.2,5.85-61.99,0-1.26,0-2.52,0-3.78,0-3.63,0-7.27,0-10.9,0-5.78,0-11.56,0-17.33,0-7.7,0-15.39,0-23.09,0-9.39,0-18.78,0-28.17,0-10.86,0-21.71,0-32.57,0-12.1,0-24.19,0-36.29,0-13.11,0-26.22,0-39.34,0-13.9,0-27.8,0-41.7,0-14.46,0-28.92,0-43.38s0-29.59,0-44.39c0-14.91,0-29.81,0-44.72,0-14.83,0-29.66,0-44.49s0-28.89,0-43.34c0-13.91,0-27.83,0-41.74,0-13.08,0-26.15,0-39.23,0-12.05,0-24.11,0-36.16,0-10.8,0-21.61,0-32.41,0-9.33,0-18.66,0-27.99,0-7.63,0-15.25,0-22.88,0-5.7,0-11.4,0-17.1,0-3.54,0-7.09,0-10.63,0-1.99,0-3.98,0-5.97-.15-20.7-2.25-41.39-6.26-61.7s-9.64-39.15-17.11-57.86c-7.36-18.44-16.36-36.22-26.9-53.06-10.45-16.71-22.4-32.5-35.62-47.11-13.19-14.59-27.67-28.01-43.21-40.05-15.66-12.14-32.37-22.91-49.94-32.09s-36.33-16.94-55.45-22.86c-19.46-6.02-39.47-10.19-59.7-12.51-10.28-1.18-20.61-1.87-30.95-2.08-6.37-.13-12.74-.07-19.1-.07-6.73,0-13.46-.04-20.19.19-10.43.35-20.84,1.2-31.18,2.54-20.16,2.62-40.06,7.06-59.4,13.35s-37.37,14.06-54.92,23.53c-17.38,9.39-33.9,20.34-49.35,32.64-15.39,12.24-29.69,25.85-42.69,40.6s-24.78,30.73-35.02,47.58c-10.32,16.98-19.1,34.89-26.23,53.45-7.23,18.83-12.72,38.33-16.36,58.17s-5.43,39.76-5.44,59.81c0,1.34,0,2.69,0,4.03,0,3.71,0,7.42,0,11.13,0,5.87,0,11.73,0,17.6,0,7.79,0,15.57,0,23.36,0,9.45,0,18.9,0,28.36,0,10.91,0,21.82,0,32.73,0,12.14,0,24.28,0,36.42,0,13.15,0,26.29,0,39.44,0,13.93,0,27.85,0,41.78s0,28.96,0,43.44c0,14.81,0,29.61,0,44.42s0,29.81,0,44.72,0,29.56,0,44.34,0,28.86,0,43.28,0,27.7,0,41.55c0,13.05,0,26.09,0,39.14,0,12.01,0,24.03,0,36.04,0,10.79,0,21.57,0,32.36,0,9.29,0,18.59,0,27.88,0,7.56,0,15.11,0,22.67,0,5.62,0,11.24,0,16.86v10.37c0,1.07,0,2.15,0,3.22,0,1.93,3,1.93,3,0Z"/>
  <path class="cls-4" d="M941.96,1245.61v-4.78c0-1.93,0-3.87,0-5.8v-7.91c0-3.32,0-6.64,0-9.96s0-7.86,0-11.8c0-4.52,0-9.04,0-13.55s0-10.13,0-15.19,0-11.14,0-16.71,0-12.08,0-18.12c0-6.47,0-12.93,0-19.4,0-6.86,0-13.71,0-20.57,0-7.21,0-14.41,0-21.62,0-7.52,0-15.03,0-22.55,0-7.82,0-15.65,0-23.47s0-16.03,0-24.05,0-16.42,0-24.62c0-8.36,0-16.72,0-25.08,0-8.47,0-16.94,0-25.42,0-8.54,0-17.09,0-25.63s0-17.16,0-25.73c0-8.57,0-17.14,0-25.71,0-8.53,0-17.05,0-25.58,0-8.44,0-16.88,0-25.32,0-8.32,0-16.63,0-24.95,0-8.19,0-16.38,0-24.57,0-7.95,0-15.89,0-23.84s0-15.41,0-23.11,0-14.84,0-22.26c0-7.1,0-14.2,0-21.29s0-13.47,0-20.21,0-12.67,0-19,0-11.79,0-17.68c0-5.41,0-10.83,0-16.24s0-9.79,0-14.68,0-8.71,0-13.06v-11.2c0-3.09,0-6.19,0-9.28v-7.25c0-1.7,0-3.4,0-5.1v-2.83c0-4.06-.05-8.13-.17-12.19-.34-11.95-1.21-23.89-2.62-35.76s-3.27-23.37-5.67-34.92c-2.37-11.39-5.24-22.68-8.59-33.82-3.32-11.04-7.13-21.93-11.39-32.64s-8.97-21.23-14.12-31.53c-5.09-10.19-10.62-20.15-16.55-29.87-5.91-9.69-12.23-19.12-18.94-28.28s-13.77-18.03-21.2-26.6c-7.41-8.55-15.17-16.79-23.27-24.7-8.09-7.91-16.51-15.48-25.24-22.69s-17.79-14.1-27.1-20.59c-9.32-6.49-18.91-12.59-28.74-18.28s-19.98-11-30.3-15.86-20.99-9.34-31.76-13.33-21.95-7.6-33.15-10.67-22.65-5.69-34.13-7.78-23.4-3.73-35.19-4.83-23.98-1.69-35.99-1.73c-4.15-.01-8.3,0-12.45,0-8.1,0-16.19,0-24.29,0-7,0-13.99,0-20.99,0s-13.32.05-19.97.31c-11.92.47-23.83,1.46-35.66,2.98s-23.3,3.5-34.81,6.02-22.71,5.49-33.85,8.98-21.84,7.35-32.49,11.72-21.02,9.13-31.22,14.36c-10.13,5.19-20.04,10.81-29.7,16.84s-19,12.42-28.09,19.21-17.9,13.94-26.39,21.45-16.64,15.34-24.47,23.5-15.32,16.67-22.44,25.46-13.94,17.93-20.33,27.3-12.41,19.04-18.01,28.93-10.86,20.2-15.64,30.62-9.14,21.1-13.02,31.92-7.34,21.94-10.29,33.13-5.46,22.74-7.44,34.26c-2.01,11.69-3.5,23.47-4.48,35.29-.91,11.06-1.36,22.16-1.37,33.26,0,.47,0,.93,0,1.4,0,1.25,0,2.5,0,3.74s0,3.98,0,5.97c0,2.69,0,5.38,0,8.07s0,6.71,0,10.06,0,7.99,0,11.99c0,4.56,0,9.12,0,13.68s0,10.21,0,15.32,0,11.22,0,16.83,0,12.15,0,18.22,0,13,0,19.5,0,13.77,0,20.65c0,7.23,0,14.46,0,21.69s0,15.07,0,22.61c0,7.8,0,15.61,0,23.41,0,8.07,0,16.14,0,24.22,0,8.22,0,16.44,0,24.66,0,8.37,0,16.74,0,25.11s0,16.96,0,25.44,0,17.1,0,25.65c0,8.58,0,17.16,0,25.74s0,17.14,0,25.71,0,17.04,0,25.56c0,8.43,0,16.86,0,25.3s0,16.61,0,24.91c0,8.18,0,16.35,0,24.53,0,7.93,0,15.86,0,23.79,0,7.68,0,15.36,0,23.05,0,7.4,0,14.79,0,22.19s0,14.14,0,21.21,0,13.41,0,20.12c0,6.3,0,12.6,0,18.91s0,11.72,0,17.57c0,5.37,0,10.75,0,16.12,0,4.85,0,9.7,0,14.55s0,8.62,0,12.93c0,3.68,0,7.37,0,11.05,0,3.04,0,6.09,0,9.13,0,2.36,0,4.72,0,7.09v4.92c0,.88,0,1.76,0,2.64,0,4.96.08,9.92.26,14.88.42,11.93,1.38,23.85,2.86,35.7s3.42,23.32,5.9,34.85,5.39,22.63,8.82,33.74,7.27,21.87,11.6,32.55,9.1,21.16,14.32,31.43,10.75,20.08,16.74,29.76,12.36,19.04,19.12,28.15,13.88,17.94,21.37,26.46c7.46,8.5,15.28,16.69,23.42,24.54s16.62,15.37,25.38,22.53c8.79,7.17,17.88,13.99,27.23,20.42s19,12.47,28.87,18.1,20.06,10.88,30.41,15.67,21.06,9.21,31.86,13.13c10.92,3.97,22.02,7.46,33.24,10.46s22.71,5.54,34.21,7.56c11.68,2.05,23.45,3.58,35.26,4.6s23.09,1.48,34.66,1.48c4.21,0,8.43,0,12.64,0,8.21,0,16.42,0,24.63,0,6.68,0,13.36,0,20.04,0,7.26,0,14.51-.09,21.76-.43,11.93-.55,23.82-1.63,35.65-3.23,11.64-1.57,23.21-3.65,34.67-6.24,11.38-2.57,22.65-5.64,33.77-9.2,10.96-3.51,21.77-7.49,32.39-11.93s20.95-9.27,31.11-14.56c10.09-5.26,19.96-10.94,29.58-17.03s18.91-12.54,27.95-19.38c9.04-6.84,17.81-14.05,26.25-21.62,8.43-7.55,16.54-15.44,24.32-23.66,7.78-8.22,15.21-16.76,22.28-25.6s13.82-18.02,20.16-27.44,12.29-19.13,17.82-29.06c5.58-10.02,10.74-20.28,15.44-30.74,4.72-10.49,9-21.17,12.81-32.02,3.84-10.92,7.2-22.01,10.08-33.22,2.91-11.33,5.31-22.79,7.21-34.34,1.93-11.72,3.35-23.52,4.24-35.36.77-10.14,1.14-20.31,1.15-30.48,0-1.93-3-1.93-3,0,0,12.02-.53,24.05-1.6,36.02-1.05,11.71-2.61,23.36-4.7,34.93s-4.64,22.89-7.71,34.16-6.52,22.07-10.49,32.86c-3.95,10.75-8.36,21.32-13.23,31.69s-10.07,20.34-15.74,30.18-11.76,19.44-18.23,28.77-13.22,18.23-20.39,26.91c-7.21,8.72-14.77,17.15-22.68,25.24s-16.06,15.79-24.56,23.17c-8.54,7.41-17.38,14.47-26.51,21.14s-18.51,12.95-28.15,18.83c-9.72,5.93-19.69,11.45-29.88,16.54s-20.56,9.74-31.13,13.93c-10.72,4.25-21.62,8.04-32.66,11.35s-22.33,6.17-33.67,8.52c-11.52,2.39-23.14,4.27-34.82,5.62-11.83,1.37-23.71,2.21-35.61,2.52-5.67.15-11.35.14-17.02.14-7.44,0-14.89,0-22.33,0-7.82,0-15.64,0-23.46,0-4.86,0-9.71.03-14.57-.05-11.99-.18-23.96-.9-35.89-2.14-11.66-1.22-23.26-2.96-34.77-5.21-11.44-2.24-22.78-4.97-33.97-8.2s-21.93-6.84-32.66-10.96-21.17-8.67-31.46-13.68c-10.2-4.96-20.18-10.36-29.92-16.16s-19.26-12.03-28.5-18.63-18.03-13.48-26.6-20.77-16.94-15.01-24.92-23.03-15.56-16.28-22.82-24.89c-7.29-8.64-14.22-17.59-20.77-26.82-6.54-9.22-12.69-18.71-18.44-28.43s-11.18-19.87-16.12-30.14-9.44-20.73-13.49-31.37-7.73-21.76-10.88-32.87-5.85-22.46-8.03-33.86-3.92-23.25-5.1-34.98-1.85-23.81-1.99-35.75c-.02-1.84-.03-3.68-.03-5.52v-3.28c0-1.83,0-3.66,0-5.49v-7.64c0-3.2,0-6.4,0-9.6s0-7.69,0-11.54c0-4.41,0-8.83,0-13.24,0-4.99,0-9.97,0-14.96,0-5.47,0-10.94,0-16.42,0-5.97,0-11.94,0-17.91s0-12.75,0-19.12c0-6.8,0-13.6,0-20.39s0-14.24,0-21.35c0-7.47,0-14.94,0-22.4,0-7.71,0-15.41,0-23.12,0-7.98,0-15.96,0-23.94,0-8.14,0-16.28,0-24.42s0-16.67,0-25.01c0-8.41,0-16.83,0-25.24,0-8.53,0-17.07,0-25.6,0-8.53,0-17.07,0-25.6,0-8.58,0-17.15,0-25.73s0-16.99,0-25.49,0-16.92,0-25.38,0-16.6,0-24.91c0-8.19,0-16.37,0-24.56s0-15.9,0-23.86,0-15.51,0-23.27c0-7.45,0-14.89,0-22.34,0-7.17,0-14.34,0-21.5,0-6.78,0-13.56,0-20.35,0-6.42,0-12.85,0-19.27,0-5.96,0-11.93,0-17.89s0-11.04,0-16.56,0-9.97,0-14.96,0-8.93,0-13.39c0-3.86,0-7.71,0-11.57,0-3.25,0-6.49,0-9.74v-7.7c0-1.87,0-3.75,0-5.62v-3.37c0-1.29,0-2.57,0-3.86.08-11.95.69-23.89,1.83-35.79s2.78-23.43,4.95-35.03c2.14-11.41,4.77-22.73,7.89-33.91,3.11-11.13,6.69-22.12,10.75-32.93s8.5-21.26,13.43-31.59,10.2-20.27,15.93-30.06,11.88-19.36,18.42-28.65,13.34-18.14,20.56-26.77c7.26-8.68,14.88-17.05,22.84-25.1,7.92-8.01,16.16-15.68,24.71-23.01,8.59-7.36,17.48-14.36,26.65-20.97s18.6-12.83,28.28-18.65,19.78-11.33,30-16.35,20.64-9.6,31.24-13.73,21.68-7.9,32.76-11.14,22.39-6.02,33.76-8.29,23.19-4.11,34.9-5.38,23.76-2.04,35.67-2.28c5.18-.1,10.36-.08,15.54-.08,7.67,0,15.33,0,23,0s15.23,0,22.85,0c5.33,0,10.67-.02,16,.1,11.97.26,23.93,1.06,35.82,2.39s23.22,3.12,34.7,5.45c11.41,2.31,22.72,5.13,33.89,8.43s21.87,6.98,32.56,11.17,21.11,8.81,31.35,13.88,20.11,10.49,29.81,16.35,19.18,12.15,28.37,18.81,17.94,13.59,26.46,20.94c8.57,7.38,16.84,15.12,24.77,23.19s15.46,16.38,22.66,25.04c7.24,8.69,14.11,17.69,20.59,26.96,6.48,9.26,12.57,18.79,18.25,28.56s11.05,19.95,15.93,30.26,9.31,20.8,13.28,31.48,7.59,21.83,10.67,32.97c3.09,11.19,5.7,22.52,7.81,33.94,2.14,11.61,3.76,23.31,4.86,35.06s1.69,23.86,1.74,35.81c0,.96,0,1.91,0,2.87v9.12c0,2.59,0,5.17,0,7.76,0,3.27,0,6.53,0,9.8s0,7.75,0,11.62v13.44c0,5,0,10.01,0,15.01s0,11.07,0,16.61,0,12.01,0,18.02,0,12.81,0,19.22c0,6.83,0,13.65,0,20.48,0,7.14,0,14.29,0,21.43,0,7.49,0,14.98,0,22.47s0,15.45,0,23.18c0,8,0,15.99,0,23.99,0,8.15,0,16.3,0,24.46,0,8.35,0,16.69,0,25.04,0,8.42,0,16.84,0,25.26,0,8.54,0,17.08,0,25.62,0,8.53,0,17.07,0,25.6s0,17.15,0,25.72,0,16.98,0,25.47,0,16.9,0,25.36c0,8.29,0,16.58,0,24.87,0,8.17,0,16.34,0,24.52,0,7.94,0,15.87,0,23.81,0,7.74,0,15.47,0,23.21s0,14.84,0,22.27,0,14.28,0,21.43,0,13.51,0,20.26c0,6.39,0,12.78,0,19.17s0,11.86,0,17.78c0,5.48,0,10.97,0,16.45,0,4.95,0,9.89,0,14.84,0,4.42,0,8.84,0,13.25,0,3.81,0,7.62,0,11.42v9.59c0,2.51,0,5.03,0,7.54v5.45c0,1.06,0,2.13,0,3.19v.87c0,1.93,3,1.93,3,0Z"/>
  <path class="cls-4" d="M964.57,1252.17v-5.06c0-2.04,0-4.07,0-6.11,0-2.79,0-5.58,0-8.38,0-3.48,0-6.96,0-10.44s0-8.27,0-12.4c0-4.77,0-9.54,0-14.31,0-5.32,0-10.64,0-15.96s0-11.7,0-17.55c0-6.37,0-12.74,0-19.1,0-6.78,0-13.57,0-20.35,0-7.22,0-14.44,0-21.66,0-7.55,0-15.1,0-22.65,0-7.87,0-15.73,0-23.6,0-8.18,0-16.36,0-24.54s0-16.75,0-25.13c0-8.57,0-17.14,0-25.71s0-17.52,0-26.28c0-8.83,0-17.65,0-26.48,0-8.93,0-17.86,0-26.8,0-8.91,0-17.83,0-26.74,0-8.89,0-17.79,0-26.68,0-8.87,0-17.74,0-26.62,0-8.73,0-17.45,0-26.18,0-8.58,0-17.16,0-25.74s0-16.86,0-25.29,0-16.32,0-24.48,0-15.77,0-23.66,0-15.21,0-22.82,0-14.43,0-21.64c0-6.84,0-13.69,0-20.53,0-6.37,0-12.74,0-19.11,0-5.89,0-11.77,0-17.66,0-5.38,0-10.77,0-16.15,0-4.79,0-9.58,0-14.37s0-8.39,0-12.59c0-3.52,0-7.05,0-10.57v-8.48c0-2.1,0-4.2,0-6.29v-3.92c0-.49,0-.97,0-1.46,0-11.68-.48-23.36-1.45-35-1.02-12.28-2.58-24.51-4.66-36.65-2.06-11.96-4.64-23.84-7.73-35.58-3.07-11.67-6.66-23.21-10.73-34.57-4.03-11.24-8.54-22.3-13.5-33.16s-10.36-21.45-16.21-31.82c-5.8-10.28-12.02-20.32-18.66-30.08s-13.66-19.22-21.06-28.39-15.21-18.07-23.36-26.61-16.57-16.67-25.35-24.47-18.02-15.35-27.48-22.45c-9.42-7.08-19.13-13.76-29.11-20.03s-20.28-12.16-30.78-17.59-21.47-10.52-32.51-15.1-22.29-8.68-33.68-12.3-23.16-6.8-34.93-9.44-24.08-4.83-36.26-6.46-24.61-2.74-36.98-3.3c-7.33-.33-14.66-.42-22-.42-6.52,0-13.05,0-19.57,0-8.72,0-17.45,0-26.17,0-6.48,0-12.96,0-19.45,0-7.42,0-14.83.1-22.24.44-12.39.57-24.74,1.68-37.03,3.34s-24.23,3.79-36.19,6.48-23.42,5.81-34.92,9.46-22.63,7.74-33.67,12.33-21.88,9.62-32.49,15.12c-10.49,5.44-20.76,11.32-30.76,17.61-10.02,6.31-19.77,13.03-29.22,20.15-9.41,7.08-18.53,14.54-27.33,22.37s-17.23,15.98-25.33,24.49c-8.14,8.55-15.93,17.44-23.34,26.63s-14.42,18.66-21.04,28.41-12.85,19.81-18.63,30.09c-5.84,10.38-11.24,21-16.18,31.83s-9.46,21.93-13.48,33.17c-4.06,11.37-7.64,22.91-10.7,34.58s-5.65,23.62-7.7,35.59-3.62,24.38-4.64,36.66c-.95,11.53-1.42,23.09-1.42,34.65,0,.49,0,.99,0,1.48,0,1.31,0,2.63,0,3.94v6.32c0,2.83,0,5.67,0,8.5,0,3.55,0,7.09,0,10.64,0,4.18,0,8.37,0,12.55,0,4.79,0,9.59,0,14.38s0,10.78,0,16.17c0,5.89,0,11.78,0,17.67,0,6.37,0,12.75,0,19.12,0,6.85,0,13.7,0,20.55,0,7.22,0,14.43,0,21.65,0,7.61,0,15.22,0,22.83s0,15.78,0,23.67c0,8.16,0,16.33,0,24.49s0,16.87,0,25.3,0,17.16,0,25.75,0,17.46,0,26.18,0,17.75,0,26.62c0,8.89,0,17.79,0,26.68s0,17.83,0,26.74,0,17.86,0,26.79,0,17.65,0,26.47c0,8.76,0,17.52,0,26.27s0,17.13,0,25.7c0,8.38,0,16.75,0,25.13s0,16.36,0,24.54,0,15.73,0,23.59,0,15.16,0,22.74c0,7.18,0,14.37,0,21.55s0,13.56,0,20.34,0,12.73,0,19.09c0,5.85,0,11.69,0,17.54,0,5.32,0,10.63,0,15.95,0,4.77,0,9.53,0,14.3,0,4.13,0,8.26,0,12.38,0,3.47,0,6.94,0,10.42,0,2.79,0,5.57,0,8.36s0,4.06,0,6.09v3.75c0,.54,0,1.07,0,1.61.01,12.49.57,24.97,1.69,37.41s2.75,24.58,4.93,36.75,4.8,23.78,7.97,35.49c3.15,11.64,6.81,23.15,10.96,34.47s8.68,22.23,13.72,33.05c5,10.74,10.45,21.27,16.33,31.55s12.21,20.33,18.93,30.09c6.69,9.7,13.78,19.13,21.24,28.25s15.26,17.89,23.42,26.34c8.2,8.49,16.75,16.64,25.63,24.42,8.85,7.76,18.03,15.16,27.49,22.18s19.22,13.64,29.24,19.85c10.1,6.26,20.46,12.09,31.04,17.48,10.61,5.4,21.44,10.34,32.47,14.82,11.13,4.53,22.46,8.58,33.94,12.14,11.53,3.57,23.22,6.64,35.02,9.2s24.03,4.65,36.17,6.2c12.35,1.57,24.78,2.59,37.22,3.06,6.67.25,13.34.3,20.01.3,6.83,0,13.65,0,20.48,0,8.75,0,17.49,0,26.24,0,6.09,0,12.19,0,18.28,0,8.14,0,16.28-.16,24.41-.59,12.37-.65,24.7-1.86,36.96-3.59,12.07-1.7,24.07-3.94,35.94-6.69s23.47-5.98,34.99-9.74,22.59-7.91,33.62-12.57c10.94-4.62,21.67-9.7,32.18-15.23s20.78-11.5,30.78-17.89c9.93-6.34,19.59-13.1,28.95-20.24,9.41-7.17,18.52-14.72,27.31-22.65,8.73-7.87,17.13-16.1,25.17-24.66,8.05-8.56,15.75-17.46,23.07-26.66,7.37-9.27,14.38-18.84,20.96-28.68s12.72-19.9,18.44-30.22,11.06-20.98,15.91-31.8c4.91-10.95,9.36-22.11,13.33-33.43s7.45-22.87,10.43-34.52,5.53-23.79,7.5-35.84c1.99-12.17,3.46-24.43,4.39-36.73.79-10.55,1.18-21.12,1.19-31.7,0-1.93-3-1.93-3,0,0,12.49-.55,24.97-1.66,37.41s-2.71,24.39-4.88,36.46-4.78,23.67-7.94,35.32c-3.14,11.59-6.78,23.04-10.9,34.32-4.09,11.17-8.65,22.17-13.68,32.94s-10.47,21.26-16.37,31.53c-5.87,10.23-12.17,20.22-18.87,29.93-6.64,9.62-13.69,18.97-21.11,28.01-7.46,9.08-15.29,17.86-23.47,26.29s-16.71,16.53-25.55,24.27c-8.84,7.73-18,15.09-27.45,22.06-9.49,6.99-19.27,13.59-29.3,19.76s-20.3,11.92-30.81,17.23c-10.59,5.36-21.4,10.27-32.41,14.7-11.1,4.47-22.4,8.46-33.84,11.96s-23.25,6.56-35.07,9.08c-11.88,2.53-23.87,4.55-35.92,6.02-12.32,1.51-24.7,2.46-37.1,2.88-6.26.21-12.52.23-18.78.23-7.03,0-14.06,0-21.1,0-8.68,0-17.37,0-26.05,0-5.85,0-11.69,0-17.54,0-8.48,0-16.95-.19-25.41-.66-12.32-.69-24.61-1.92-36.81-3.7s-24.03-4.05-35.88-6.86c-11.72-2.78-23.32-6.07-34.76-9.85-11.27-3.73-22.38-7.93-33.29-12.61-10.91-4.68-21.61-9.82-32.08-15.41-10.42-5.56-20.61-11.55-30.54-17.96-9.89-6.39-19.52-13.19-28.85-20.38-9.3-7.17-18.29-14.73-26.95-22.64s-16.95-16.12-24.91-24.69c-8-8.61-15.65-17.55-22.91-26.79s-14.14-18.8-20.6-28.61-12.58-19.99-18.23-30.36c-5.65-10.37-10.86-20.97-15.62-31.77s-9.13-22.02-12.97-33.3-7.27-22.95-10.16-34.63-5.32-23.75-7.19-35.77c-1.9-12.17-3.24-24.42-4.05-36.71-.61-9.25-.9-18.52-.91-27.79,0-.64,0-1.28,0-1.93,0-1.46,0-2.91,0-4.37s0-4.46,0-6.68c0-2.94,0-5.88,0-8.83s0-7.28,0-10.92,0-8.57,0-12.86,0-9.78,0-14.67c0-5.45,0-10.9,0-16.35,0-5.94,0-11.88,0-17.82,0-6.45,0-12.89,0-19.34,0-6.88,0-13.76,0-20.64,0-7.27,0-14.55,0-21.82s0-15.25,0-22.87c0-7.89,0-15.79,0-23.68s0-16.4,0-24.59c0-8.42,0-16.84,0-25.27,0-8.6,0-17.21,0-25.81s0-17.49,0-26.23,0-17.6,0-26.4,0-17.8,0-26.7c0-8.91,0-17.82,0-26.74s0-17.77,0-26.65c0-8.77,0-17.55,0-26.32s0-17.4,0-26.11,0-17.1,0-25.64c0-8.35,0-16.7,0-25.05s0-16.23,0-24.34c0-7.8,0-15.59,0-23.39,0-7.51,0-15.02,0-22.53s0-14.29,0-21.44c0-6.74,0-13.48,0-20.22,0-6.29,0-12.58,0-18.87,0-5.77,0-11.54,0-17.32,0-5.27,0-10.53,0-15.8s0-9.38,0-14.08c0-4.07,0-8.15,0-12.22,0-3.41,0-6.83,0-10.24,0-2.7,0-5.4,0-8.11,0-1.97,0-3.95,0-5.92v-3.56c0-1.36,0-2.72.01-4.09.09-12.41.72-24.82,1.9-37.18s2.88-24.34,5.12-36.39,4.96-23.73,8.2-35.4,6.93-22.98,11.13-34.22,8.8-22.09,13.9-32.83,10.56-21.08,16.49-31.26,12.29-20.14,19.06-29.8,13.87-18.97,21.39-28,15.41-17.75,23.64-26.14,16.73-16.35,25.59-23.99,18.09-14.98,27.59-21.89c9.53-6.93,19.35-13.47,29.43-19.58s20.48-11.85,31.07-17.12,21.48-10.13,32.53-14.48,22.36-8.28,33.78-11.69,23.31-6.42,35.15-8.86c11.96-2.47,24.04-4.41,36.17-5.81s24.75-2.29,37.17-2.62c5.66-.15,11.32-.15,16.98-.15,7.29,0,14.57,0,21.86,0,8.63,0,17.26,0,25.88,0,5.47,0,10.94,0,16.41,0,9.25,0,18.5.26,27.73.84,12.3.78,24.56,2.09,36.74,3.96,11.97,1.84,23.87,4.19,35.63,7.06s23.27,6.21,34.67,10.06,22.42,8.11,33.34,12.88,21.54,9.96,31.97,15.61,20.44,11.63,30.27,18.07c9.83,6.44,19.41,13.28,28.67,20.53,9.26,7.24,18.22,14.86,26.85,22.84,8.63,7.97,16.93,16.31,24.87,24.96s15.53,17.65,22.74,26.94,13.95,18.8,20.32,28.62,12.46,20.08,18.05,30.48,10.78,21.15,15.49,32.04,8.98,22.1,12.75,33.41c3.81,11.43,7.12,23.02,9.93,34.73s5.13,23.7,6.92,35.68,3.08,24.47,3.81,36.78c.49,8.35.73,16.7.73,25.06,0,.71,0,1.42,0,2.13v4.56c0,2.27,0,4.55,0,6.82,0,3.01,0,6.02,0,9.03s0,7.39,0,11.08,0,8.67,0,13.01c0,4.91,0,9.82,0,14.74v16.48c0,6.01,0,12.02,0,18.02,0,6.48,0,12.96,0,19.44s0,13.83,0,20.74,0,14.54,0,21.8c0,7.65,0,15.3,0,22.94,0,7.95,0,15.91,0,23.86s0,16.43,0,24.65c0,8.4,0,16.8,0,25.19,0,8.62,0,17.23,0,25.85,0,8.75,0,17.51,0,26.26,0,8.85,0,17.7,0,26.54,0,8.9,0,17.8,0,26.7,0,8.87,0,17.74,0,26.61s0,17.76,0,26.64c0,8.81,0,17.61,0,26.42s0,17.38,0,26.07c0,8.53,0,17.07,0,25.6,0,8.3,0,16.59,0,24.89,0,8.09,0,16.19,0,24.28s0,15.62,0,23.43c0,7.48,0,14.97,0,22.45s0,14.23,0,21.34,0,13.35,0,20.02c0,6.25,0,12.51,0,18.76s0,11.52,0,17.28,0,10.45,0,15.67,0,9.25,0,13.87c0,4.03,0,8.05,0,12.08,0,3.36,0,6.73,0,10.09s0,5.32,0,7.98v5.74c0,1.12,0,2.24,0,3.36v.92c0,1.93,3,1.93,3,0Z"/>
  <path class="cls-4" d="M987.89,1263.19v-5.32c0-2.15,0-4.3,0-6.45,0-2.92,0-5.83,0-8.75,0-3.66,0-7.33,0-10.99,0-4.35,0-8.71,0-13.06s0-10,0-15,0-11.2,0-16.8,0-12.31,0-18.47c0-6.63,0-13.27,0-19.9s0-14.26,0-21.38,0-15.1,0-22.64c0-7.92,0-15.84,0-23.77,0-8.25,0-16.5,0-24.75,0-8.5,0-16.99,0-25.49,0-8.77,0-17.54,0-26.32,0-8.97,0-17.93,0-26.9,0-9.11,0-18.23,0-27.34,0-9.22,0-18.43,0-27.65,0-9.23,0-18.47,0-27.7,0-9.29,0-18.57,0-27.86,0-9.25,0-18.51,0-27.76s0-18.35,0-27.53c0-9.05,0-18.11,0-27.16,0-8.88,0-17.77,0-26.65,0-8.67,0-17.34,0-26.01s0-16.75,0-25.12c0-8.11,0-16.22,0-24.33s0-15.52,0-23.28c0-7.37,0-14.73,0-22.1s0-13.85,0-20.78,0-12.82,0-19.24c0-5.91,0-11.82,0-17.74,0-5.34,0-10.67,0-16.01,0-4.72,0-9.43,0-14.15,0-4.05,0-8.1,0-12.15,0-3.33,0-6.65,0-9.98s0-5.17,0-7.76v-5.35c0-.94,0-1.87,0-2.81,0-6.01-.11-12.01-.35-18.01-.51-12.91-1.6-25.8-3.25-38.61s-3.78-25.11-6.48-37.52c-2.68-12.3-5.9-24.48-9.63-36.49s-7.92-23.66-12.63-35.21-9.84-22.78-15.47-33.84c-5.6-10.98-11.65-21.73-18.15-32.21s-13.38-20.61-20.7-30.48-14.96-19.34-23.01-28.53c-8.07-9.21-16.53-18.09-25.33-26.61-8.81-8.52-17.96-16.67-27.44-24.44s-19.32-15.19-29.43-22.17c-10.12-6.99-20.53-13.56-31.2-19.68s-21.58-11.79-32.72-16.99c-11.27-5.26-22.76-10.06-34.43-14.35-11.74-4.32-23.67-8.14-35.74-11.44-12.19-3.33-24.53-6.13-36.97-8.38-12.62-2.29-25.33-4.02-38.1-5.2s-25.84-1.81-38.8-1.86c-3.89-.02-7.78,0-11.66,0-8.06,0-16.13,0-24.19,0-8.98,0-17.96,0-26.94,0-6.04,0-12.08,0-18.12,0-8.18,0-16.35.15-24.52.56-12.84.65-25.65,1.87-38.38,3.64s-25.11,4.04-37.5,6.88-24.38,6.15-36.35,10c-11.86,3.82-23.55,8.16-35.04,12.98-11.43,4.8-22.66,10.07-33.65,15.81s-21.6,11.87-32.01,18.47-20.38,13.52-30.13,20.9c-9.79,7.41-19.28,15.21-28.43,23.39s-17.92,16.71-26.35,25.59-16.5,18.13-24.16,27.69-15,19.48-21.88,29.66c-6.86,10.15-13.3,20.58-19.29,31.27-6.04,10.78-11.64,21.81-16.75,33.05s-9.83,22.88-14.01,34.6-7.9,23.78-11.08,35.9c-3.21,12.25-5.88,24.63-8,37.11s-3.76,25.42-4.81,38.22c-.98,11.94-1.46,23.92-1.46,35.9,0,.52,0,1.04,0,1.56v4.16c0,2.21,0,4.42,0,6.63,0,2.99,0,5.98,0,8.96,0,3.72,0,7.44,0,11.16,0,4.39,0,8.77,0,13.16,0,5.05,0,10.09,0,15.14s0,11.29,0,16.93,0,12.39,0,18.59c0,6.7,0,13.4,0,20.11s0,14.26,0,21.39c0,7.58,0,15.16,0,22.73s0,15.9,0,23.85,0,16.55,0,24.82,0,17.11,0,25.66,0,17.5,0,26.25,0,17.96,0,26.94,0,18.25,0,27.37c0,9.22,0,18.45,0,27.67s0,18.55,0,27.83c0,9.29,0,18.57,0,27.86,0,9.21,0,18.42,0,27.62,0,9.17,0,18.34,0,27.51s0,18.08,0,27.13c0,8.87,0,17.74,0,26.61,0,8.65,0,17.31,0,25.96,0,8.39,0,16.78,0,25.17s0,16.09,0,24.14c0,7.73,0,15.46,0,23.19s0,14.67,0,22,0,13.78,0,20.67c0,6.4,0,12.8,0,19.2,0,5.84,0,11.68,0,17.53s0,10.58,0,15.87,0,9.33,0,14v11.99c0,3.28,0,6.57,0,9.85,0,2.51,0,5.03,0,7.54v5.16c0,.87,0,1.74,0,2.61,0,6.96.15,13.92.48,20.88.6,12.91,1.78,25.79,3.51,38.6,1.7,12.61,3.95,25.14,6.75,37.55,2.77,12.27,6.06,24.41,9.88,36.4s8.04,23.48,12.8,34.94,9.98,22.71,15.68,33.72,11.79,21.65,18.35,32.08c6.54,10.4,13.51,20.52,20.89,30.34,7.38,9.81,15.14,19.33,23.3,28.51s16.57,17.9,25.39,26.32,18.07,16.56,27.6,24.27c9.55,7.73,19.42,15.07,29.58,21.99s20.62,13.43,31.33,19.48c10.75,6.08,21.76,11.71,32.99,16.86,11.26,5.17,22.73,9.87,34.38,14.07s23.74,7.99,35.84,11.21,24.59,5.97,37.06,8.15,25.39,3.86,38.18,4.96c12.52,1.07,25.08,1.6,37.64,1.61,3.82,0,7.64,0,11.46,0,8.24,0,16.48,0,24.72,0,8.89,0,17.79,0,26.68,0,5.66,0,11.32,0,16.97,0,8.94,0,17.87-.21,26.79-.72,12.88-.74,25.72-2.05,38.48-3.91,12.57-1.83,25.05-4.21,37.41-7.14s24.21-6.28,36.09-10.2c11.85-3.91,23.52-8.33,34.99-13.22,11.38-4.86,22.56-10.19,33.49-15.99,10.88-5.77,21.52-12,31.88-18.66s20.38-13.71,30.12-21.19c9.7-7.44,19.09-15.26,28.15-23.46,9.08-8.22,17.82-16.82,26.19-25.76,8.38-8.94,16.38-18.23,23.99-27.84,7.63-9.63,14.88-19.57,21.7-29.8,6.83-10.24,13.23-20.77,19.17-31.54,5.95-10.77,11.44-21.8,16.46-33.03s9.69-22.95,13.8-34.71,7.75-23.85,10.85-36,5.72-24.69,7.76-37.2,3.6-25.47,4.56-38.3c.82-10.96,1.23-21.95,1.23-32.94,0-1.93-3-1.93-3,0,0,12.96-.57,25.92-1.71,38.83-1.13,12.74-2.82,25.43-5.07,38.02s-4.97,24.69-8.26,36.84c-3.25,12.03-7.02,23.92-11.29,35.63-4.23,11.6-8.95,23.02-14.16,34.21-5.21,11.2-10.89,22.18-17.02,32.9-6.08,10.63-12.6,21.01-19.54,31.1-6.91,10.05-14.24,19.81-21.96,29.25s-15.83,18.56-24.3,27.34-17.3,17.2-26.45,25.25c-9.19,8.08-18.72,15.79-28.56,23.08s-19.95,14.16-30.35,20.6-21.13,12.5-32.06,18.07c-10.97,5.59-22.17,10.73-33.58,15.37-11.55,4.7-23.31,8.91-35.22,12.6-11.97,3.71-24.09,6.91-36.34,9.57s-24.85,4.85-37.41,6.45c-12.76,1.62-25.6,2.67-38.45,3.17-6.88.26-13.77.32-20.66.32-6.64,0-13.28,0-19.93,0-9.04,0-18.08,0-27.13,0-7.64,0-15.27,0-22.91,0-4.78,0-9.56.02-14.34-.05-12.92-.2-25.83-.96-38.69-2.29-12.64-1.31-25.21-3.18-37.68-5.6s-24.57-5.32-36.65-8.77c-11.96-3.42-23.78-7.35-35.41-11.78s-22.96-9.32-34.12-14.7c-11.06-5.34-21.9-11.14-32.48-17.39s-20.82-12.88-30.81-19.96c-9.95-7.05-19.6-14.51-28.94-22.35s-18.43-16.16-27.12-24.79c-8.65-8.59-16.96-17.54-24.88-26.81-7.92-9.27-15.45-18.86-22.58-28.75s-13.89-20.15-20.19-30.64-12.21-21.31-17.64-32.33-10.47-22.45-14.97-33.98c-4.52-11.58-8.54-23.36-12.05-35.29s-6.57-24.23-9.06-36.54-4.51-25.09-5.93-37.76-2.3-25.71-2.59-38.61c-.08-3.65-.12-7.31-.12-10.96v-3.27c0-1.92,0-3.84,0-5.76,0-2.72,0-5.44,0-8.16,0-3.45,0-6.91,0-10.36,0-4.15,0-8.3,0-12.45s0-9.6,0-14.41c0-5.44,0-10.87,0-16.31,0-5.98,0-11.95,0-17.93s0-12.99,0-19.48c0-6.97,0-13.93,0-20.9,0-7.4,0-14.79,0-22.19,0-7.82,0-15.63,0-23.45s0-16.24,0-24.36,0-16.83,0-25.25c0-8.71,0-17.41,0-26.12,0-8.87,0-17.74,0-26.62,0-9.03,0-18.07,0-27.1,0-9.15,0-18.3,0-27.45s0-18.44,0-27.66,0-18.58,0-27.86c0-9.23,0-18.46,0-27.68s0-18.33,0-27.49,0-18.11,0-27.17,0-17.89,0-26.83,0-17.41,0-26.12c0-8.47,0-16.93,0-25.4,0-8.18,0-16.36,0-24.54s0-15.7,0-23.54,0-15.01,0-22.51,0-14.1,0-21.15,0-13.17,0-19.75c0-6.1,0-12.2,0-18.3,0-5.52,0-11.03,0-16.55,0-4.92,0-9.84,0-14.75,0-4.27,0-8.55,0-12.82,0-3.58,0-7.17,0-10.75,0-2.86,0-5.72,0-8.59,0-2.07,0-4.14,0-6.21v-3.74c0-1.38,0-2.77.01-4.15.09-13,.75-26,1.99-38.94s2.98-25.27,5.31-37.77,5.13-24.63,8.49-36.75c3.33-12,7.17-23.86,11.51-35.53,4.3-11.57,9.1-22.95,14.38-34.1s11.03-22.1,17.22-32.78,12.73-20.92,19.73-30.96,14.36-19.72,22.14-29.11,15.95-18.46,24.47-27.19,17.48-17.17,26.74-25.19,18.74-15.59,28.58-22.79c9.87-7.22,20.05-14.03,30.48-20.41s21.21-12.37,32.18-17.87,22.35-10.64,33.85-15.22c11.54-4.6,23.28-8.71,35.17-12.32s24.16-6.75,36.43-9.34,24.91-4.69,37.49-6.2,25.77-2.51,38.7-2.92c6.17-.19,12.34-.21,18.51-.21,6.96,0,13.92,0,20.88,0,9.07,0,18.14,0,27.21,0,7.37,0,14.74,0,22.12,0,5.36,0,10.72-.01,16.08.11,12.9.28,25.79,1.13,38.62,2.55s25.16,3.35,37.6,5.85c12.31,2.47,24.51,5.48,36.56,9.01,11.99,3.51,23.82,7.54,35.47,12.06s22.79,9.43,33.85,14.86,21.82,11.28,32.36,17.59,20.73,13.01,30.67,20.15,19.6,14.7,28.91,22.64,18.24,16.2,26.84,24.85,16.85,17.64,24.71,26.97,15.34,18.96,22.4,28.9c7.12,10.02,13.82,20.34,20.08,30.92s12.07,21.4,17.42,32.46c5.37,11.1,10.28,22.43,14.68,33.95,4.45,11.62,8.39,23.43,11.83,35.39,3.47,12.07,6.41,24.3,8.83,36.63,2.45,12.52,4.35,25.15,5.68,37.84,1.35,12.85,2.12,25.76,2.34,38.68.04,2.71.06,5.42.06,8.13v3.46c0,1.99,0,3.99,0,5.98,0,2.77,0,5.54,0,8.31,0,3.51,0,7.02,0,10.52v12.6c0,4.87,0,9.75,0,14.62,0,5.46,0,10.91,0,16.37,0,6.02,0,12.03,0,18.05,0,6.53,0,13.06,0,19.59,0,7.03,0,14.07,0,21.1s0,14.86,0,22.29,0,15.62,0,23.43c0,8.15,0,16.29,0,24.44,0,8.44,0,16.87,0,25.31s0,17.45,0,26.17,0,17.77,0,26.66c0,9.04,0,18.09,0,27.13,0,9.16,0,18.31,0,27.47,0,9.26,0,18.53,0,27.79,0,9.25,0,18.49,0,27.74,0,9.22,0,18.45,0,27.67,0,9.16,0,18.32,0,27.47s0,18.18,0,27.26,0,17.78,0,26.67,0,17.38,0,26.07c0,8.44,0,16.89,0,25.33s0,16.38,0,24.57c0,7.82,0,15.64,0,23.46,0,7.44,0,14.88,0,22.32,0,7.02,0,14.03,0,21.05,0,6.55,0,13.09,0,19.64v18.18c0,5.47,0,10.95,0,16.42,0,4.87,0,9.74,0,14.61s0,8.44,0,12.67c0,3.54,0,7.09,0,10.63s0,5.58,0,8.37v6.02c0,1.18,0,2.36,0,3.55v.96c0,1.93,3,1.93,3,0Z"/>
  <g class="cls-5">
    <rect class="cls-3" x="168.61" y="217.26" width="682.04" height="1345.85" rx="330.36" ry="330.36"/>
  </g>
  <line class="cls-2" x1="168.07" y1="1232.75" x2=".91" y2="1232.75"/>
  <path class="cls-4" d="M153.21,1228.69v-3.94h1.27v-8.14h-1.27v-3.94h5.9v12.07h1.27v3.94h-7.18ZM154.49,1227.61h4.63v-1.78h-1.27v-12.07h-3.36v1.78h1.27v10.3h-1.27v1.78Z"/>
  <path class="cls-4" d="M127,1228.69v-7.1l2.42-2.69h4.34v-2.28h-1.94v1.56h-4.82v-2.86l2.98-2.64h5.64l2.78,2.69v4.73l-3.12,2.71h-3.67v1.94h2.16v-1.32h4.63v5.26h-11.4ZM128.27,1227.61h8.86v-3.1h-2.09v1.32h-4.7v-3.07l.94-1.03h3.34l2.52-2.21v-3.62l-2.18-2.14h-4.25l-2.42,2.16v1.18h2.28v-.65l1.06-.91h2.54l.89.89v2.54l-1.2,1.01h-3.65l-1.92,2.14v5.5Z"/>
  <path class="cls-4" d="M103.29,1222.65h4.03v2.11h2.21v-2.47h-1.46v-3.53h1.46v-2.14h-2.21v1.75h-4.03v-3.17l2.54-2.52h5.69l2.62,2.95v4.22l-.82.72.82.89v4.61l-2.98,2.62h-5.66l-2.21-2.4v-3.65ZM104.56,1223.73v2.11l1.66,1.78h4.27l2.38-2.11v-3.55l-1.37-1.39,1.37-1.25v-3.17l-2.09-2.38h-4.27l-1.94,1.92v1.61h1.66v-.77l1.06-.98h2.69l.84.91v2.38l-1.1,1.03h-.53v1.34h.53l1.1,1.13v2.64l-.98.86h-2.86l-.74-.84v-1.27h-1.66Z"/>
  <path class="cls-4" d="M83.24,1228.69v-3.94h1.06v-.72h-5.42v-3.1l6.26-8.45h3.79v8.02h1.06v3.53h-1.06v.72h1.06v3.94h-6.74ZM84.51,1227.61h4.2v-1.78h-1.06v-2.88h1.06v-1.34h-1.06v-8.04h-1.94l-5.74,7.73v1.66h5.59v2.88h-1.06v1.78ZM85.57,1221.61h-3.58l3.58-4.82v4.82ZM84.75,1220.8v-1.56l-1.2,1.56h1.2Z"/>
  <path class="cls-4" d="M61.4,1217.89v-1.27h-2.26v1.97h3.94l2.74,2.9v4.08l-2.76,3.12h-5.9l-2.66-3.19v-2.35h4.66v1.61h2.06v-2.35h-6.55v-9.72h10.99v5.21h-4.25ZM57.88,1219.67v-4.13h4.78v1.27h1.73v-3.05h-8.45v7.56h5.71l.84.89v2.5l-1.03,1.13h-2.74l-.84-1.01v-.6h-2.11v.84l2.11,2.54h4.39l2.28-2.54v-3.12l-2.09-2.28h-4.58Z"/>
  <path class="cls-4" d="M35.51,1219.05h4.13l2.57,2.59v4.22l-2.62,2.83h-5.71l-3-2.95v-9.99l3-3.07h5.76l2.57,2.95v2.47h-4.61v-1.49h-2.09v2.42ZM34.23,1220.13v-3.53l1.06-1.06h2.83l.74.84v.65h2.06v-.98l-1.99-2.28h-4.39l-2.4,2.5v8.93l2.47,2.42h4.22l2.09-2.21v-3.29l-1.99-1.99h-4.7ZM34.23,1221.78h3.89l.74.74v2.42l-.86.89h-2.62l-1.15-1.13v-2.93ZM35.51,1222.86v1.9h2.09v-1.9h-2.09Z"/>
  <path class="cls-4" d="M7.99,1217.85v-5.16h11.86v2.69l-5.35,13.32h-4.9l5.04-12.07h-2.42v1.22h-4.22ZM9.26,1216.77h1.7v-1.22h5.5l-5.02,12.07h2.14l4.99-12.46v-1.39h-9.31v3Z"/>
  <rect class="cls-1" x="1.5" y="1.79" width="22.53" height="522.27"/>
  <rect class="cls-1" x="24.03" y="1.79" width="23.32" height="522.27"/>
  <rect class="cls-1" x="47.35" y="1.79" width="23.32" height="522.27"/>
  <rect class="cls-1" x="70.67" y="1.79" width="23.32" height="522.27"/>
  <rect class="cls-1" x="93.99" y="1.79" width="25.49" height="522.27"/>
  <rect class="cls-1" x="119.48" y="1.79" width="24.37" height="522.27"/>
  <rect class="cls-1" x="143.85" y="1.79" width="23.43" height="522.27"/>
  <path class="cls-1" d="M846.64,496.29c136.47-3.28,157.11-84.25,157.11-84.25"/>
  <line class="cls-1" x1="122" y1="1268.37" x2="122" y2="1268.37"/>
  <line class="cls-1" x1="146.22" y1="1264.15" x2="146.22" y2="1264.15"/>
  <line class="cls-1" x1="146.22" y1="1268.37" x2="122" y2="1272.59"/>
  <line class="cls-1" x1="132.16" y1="1325.72" x2="108.38" y2="1331.43"/>
  <line class="cls-1" x1="130.84" y1="1395.22" x2="105.92" y2="1406.2"/>
  <line class="cls-1" x1="138.53" y1="1467.86" x2="115.48" y2="1480.36"/>
  <line class="cls-1" x1="153.7" y1="1531.12" x2="131.03" y2="1549.42"/>
  <line class="cls-1" x1="196.57" y1="1611.17" x2="184.06" y2="1625.44"/>
</svg>