<?xml version="1.0" encoding="UTF-8"?>
<svg id="Layer_1" data-name="Layer 1" xmlns="http://www.w3.org/2000/svg" viewBox="0 0 31.55 45.26">
  <defs>
    <style>
      .cls-1 {
        fill: #0071bc;
      }

      .cls-2 {
        fill: #fff;
      }

      .cls-3 {
        fill: #231f20;
      }

      .cls-4 {
        fill: #f0d0b4;
      }

      .cls-5 {
        fill: gray;
      }

      .cls-6 {
        fill: #4a0f00;
      }
    </style>
  </defs>
  <rect class="cls-4" x="9.89" y="7.87" width="21.66" height="9.88"/>
  <rect class="cls-4" x="13.82" y="17.77" width="13.79" height="3.94"/>
  <rect x="19.82" y="13.8" width="1.97" height="1.97"/>
  <rect x="19.82" y="11.83" width="1.97" height="1.97"/>
  <rect class="cls-2" x="17.86" y="13.8" width="1.97" height="1.97"/>
  <rect class="cls-2" x="17.86" y="11.83" width="1.97" height="1.97"/>
  <rect class="cls-2" x="17.86" y="9.86" width="1.97" height="1.97"/>
  <rect class="cls-2" x="19.82" y="9.86" width="1.97" height="1.97"/>
  <rect class="cls-2" x="25.65" y="11.83" width="1.97" height="1.97"/>
  <rect class="cls-2" x="25.65" y="13.8" width="1.97" height="1.97"/>
  <rect class="cls-2" x="25.65" y="9.89" width="1.97" height="1.97"/>
  <rect class="cls-2" x="27.61" y="9.89" width="1.97" height="1.97"/>
  <rect x="27.61" y="11.86" width="1.97" height="1.97"/>
  <rect x="27.61" y="13.83" width="1.97" height="1.97"/>
  <rect class="cls-6" x="13.82" y="7.9" width="1.97" height="1.97"/>
  <rect class="cls-6" x="11.86" y="7.9" width="1.97" height="1.97"/>
  <rect class="cls-6" x="9.89" y="7.9" width="1.97" height="1.97"/>
  <rect class="cls-6" x="11.86" y="1.97" width="15.62" height="5.96"/>
  <g>
    <rect class="cls-3" x="11.87" y="1.97" width="1.97" height="1.97"/>
    <rect class="cls-3" x="13.84" width="1.97" height="1.97"/>
    <rect class="cls-3" x="15.81" width="1.97" height="1.97"/>
    <rect class="cls-3" x="17.77" width="1.97" height="1.97"/>
    <rect class="cls-3" x="19.73" width="1.97" height="1.97"/>
    <rect class="cls-3" x="21.71" width="1.97" height="1.97"/>
    <rect class="cls-3" x="23.68" width="1.97" height="1.97"/>
    <rect class="cls-3" x="25.65" y="1.97" width="1.97" height="1.97"/>
    <rect class="cls-3" x="25.65" y="3.94" width="1.97" height="1.97"/>
    <rect class="cls-3" x="27.61" y="3.94" width="1.97" height="1.97"/>
    <rect class="cls-3" x="29.58" y="5.9" width="1.97" height="1.97"/>
    <rect class="cls-3" x="29.58" y="7.87" width="1.97" height="9.88"/>
    <rect class="cls-3" x="7.92" y="7.93" width="1.97" height="5.89"/>
    <rect class="cls-3" x="9.89" y="13.82" width="1.97" height="3.94"/>
    <rect class="cls-3" x="11.86" y="17.75" width="1.97" height="1.97"/>
    <rect class="cls-3" x="13.82" y="19.72" width="1.97" height="1.97"/>
    <rect class="cls-3" x="15.79" y="21.7" width="1.97" height="1.97"/>
    <rect class="cls-3" x="17.76" y="21.7" width="1.97" height="1.97"/>
    <rect class="cls-3" x="19.73" y="21.7" width="1.97" height="1.97"/>
    <rect class="cls-3" x="21.7" y="21.7" width="1.97" height="1.97"/>
    <rect class="cls-3" x="23.67" y="21.7" width="1.98" height="1.99"/>
    <rect class="cls-3" x="25.65" y="19.73" width="1.97" height="1.97"/>
    <rect class="cls-3" x="27.61" y="17.77" width="1.97" height="1.97"/>
    <rect class="cls-3" x="9.89" y="3.94" width="1.97" height="1.97"/>
    <rect class="cls-3" x="9.89" y="5.84" width="1.97" height="2.06"/>
    <rect class="cls-3" x="17.76" y="17.77" width="1.97" height="1.97"/>
    <rect class="cls-3" x="19.73" y="17.77" width="1.97" height="1.97"/>
    <rect class="cls-3" x="21.7" y="17.77" width="1.97" height="1.97"/>
    <rect class="cls-3" x="23.67" y="17.77" width="1.97" height="1.97"/>
  </g>
  <rect class="cls-6" x="21.79" y="7.9" width="1.97" height="1.97"/>
  <rect class="cls-6" x="27.48" y="5.9" width="2.11" height="2.02"/>
  <rect class="cls-1" x="9.87" y="17.75" width="1.98" height="1.98"/>
  <rect class="cls-6" x="23.76" y="7.9" width="1.89" height="1.97"/>
  <rect class="cls-6" x="13.82" y="9.86" width="1.97" height="2"/>
  <rect class="cls-6" x="11.86" y="9.87" width="1.97" height="1.97"/>
  <rect class="cls-6" x="11.87" y="11.83" width="1.97" height="2"/>
  <rect class="cls-3" x="5.91" y="11.83" width="1.97" height="1.97"/>
  <rect class="cls-3" x="3.94" y="13.8" width="1.97" height="1.97"/>
  <rect class="cls-3" x="1.97" y="15.77" width="1.97" height="1.97"/>
  <rect class="cls-3" y="17.74" width="1.97" height="1.97"/>
  <rect class="cls-3" y="19.71" width="1.97" height="1.97"/>
  <rect class="cls-3" x="1.97" y="21.72" width="1.97" height="1.97"/>
  <rect class="cls-3" x="1.97" y="23.65" width="1.97" height="1.97"/>
  <rect class="cls-3" x="3.94" y="25.61" width="1.97" height="1.97"/>
  <rect class="cls-3" x="5.91" y="27.58" width="1.97" height="1.97"/>
  <rect class="cls-3" x="7.92" y="29.51" width="1.97" height="1.97"/>
  <rect class="cls-3" x="7.92" y="33.45" width="1.97" height="1.97"/>
  <rect class="cls-3" x="7.87" y="35.42" width="2.04" height="1.97"/>
  <rect class="cls-3" x="5.95" y="37.39" width="1.97" height="1.97"/>
  <rect class="cls-3" x="5.95" y="39.34" width="1.97" height="1.97"/>
  <rect class="cls-3" x="5.9" y="41.31" width="1.97" height="2"/>
  <rect class="cls-3" x="7.87" y="43.29" width="2.02" height="1.97"/>
  <rect class="cls-3" x="9.89" y="43.29" width="1.97" height="1.97"/>
  <rect class="cls-3" x="11.87" y="43.29" width="1.97" height="1.97"/>
  <rect class="cls-3" x="13.85" y="43.29" width="1.97" height="1.97"/>
  <rect class="cls-3" x="15.83" y="43.29" width="1.97" height="1.97"/>
  <rect class="cls-3" x="17.76" y="43.29" width="1.97" height="1.97"/>
  <rect class="cls-3" x="17.76" y="41.32" width="1.97" height="1.97"/>
  <rect class="cls-3" x="15.79" y="39.35" width="1.97" height="1.97"/>
  <rect class="cls-3" x="13.82" y="39.35" width="1.97" height="1.97"/>
  <rect class="cls-3" x="15.83" y="37.39" width="1.97" height="1.97"/>
  <rect class="cls-3" x="17.76" y="35.42" width="1.97" height="1.97"/>
  <rect class="cls-3" x="17.76" y="33.49" width="1.97" height="1.97"/>
  <rect class="cls-3" x="19.73" y="33.49" width="1.97" height="1.97"/>
  <rect class="cls-3" x="17.76" y="31.53" width="1.97" height="1.97"/>
  <rect class="cls-3" x="21.7" y="31.53" width="1.97" height="1.97"/>
  <rect class="cls-3" x="17.76" y="29.55" width="1.97" height="1.97"/>
  <rect class="cls-3" x="21.7" y="29.56" width="1.97" height="1.97"/>
  <rect class="cls-3" x="19.73" y="27.58" width="1.97" height="1.97"/>
  <rect class="cls-3" x="21.7" y="27.59" width="1.97" height="1.97"/>
  <rect class="cls-3" x="23.67" y="27.59" width="1.97" height="1.97"/>
  <rect class="cls-3" x="25.63" y="27.59" width="1.97" height="1.97"/>
  <rect class="cls-3" x="25.65" y="21.71" width="1.97" height="1.97"/>
  <rect class="cls-3" x="23.67" y="23.66" width="1.97" height="1.97"/>
  <rect class="cls-3" x="21.7" y="25.61" width="1.97" height="1.97"/>
  <rect class="cls-3" x="27.62" y="23.66" width="1.97" height="1.97"/>
  <rect class="cls-3" x="27.61" y="25.61" width="1.97" height="1.97"/>
  <rect class="cls-1" x="1.97" y="17.75" width="3.91" height="3.96"/>
  <rect class="cls-1" x="5.89" y="15.63" width="3.99" height="6.08"/>
  <rect class="cls-1" x="7.92" y="13.79" width="1.97" height="1.98"/>
  <rect class="cls-1" x="5.91" y="13.79" width="2.01" height="1.98"/>
  <rect class="cls-1" x="3.94" y="15.77" width="1.97" height="1.98"/>
  <rect class="cls-4" x="3.94" y="21.7" width="1.98" height="1.98"/>
  <rect class="cls-4" x="7.88" y="25.61" width="3.97" height="3.95"/>
  <rect class="cls-4" x="5.93" y="21.69" width="3.98" height="3.93"/>
  <rect class="cls-4" x="3.94" y="23.63" width="1.98" height="1.98"/>
  <rect class="cls-4" x="5.93" y="25.61" width="1.95" height="1.98"/>
  <rect class="cls-4" x="11.86" y="25.61" width="3.97" height="3.95"/>
  <rect class="cls-4" x="9.89" y="29.56" width="3.97" height="1.97"/>
  <rect class="cls-4" x="9.91" y="23.64" width="1.98" height="1.98"/>
  <rect class="cls-1" x="9.88" y="19.73" width="1.98" height="1.98"/>
  <rect class="cls-1" x="11.84" y="19.73" width="1.98" height="1.98"/>
  <rect class="cls-1" x="11.89" y="21.65" width="1.96" height="1.98"/>
  <rect class="cls-1" x="13.82" y="21.65" width="1.98" height="1.98"/>
  <rect class="cls-1" x="15.83" y="23.67" width="2.01" height="1.93"/>
  <rect class="cls-3" x="9.89" y="21.7" width="2" height="1.98"/>
  <rect class="cls-3" x="11.89" y="23.68" width="1.98" height="1.98"/>
  <rect class="cls-3" x="13.87" y="23.68" width="1.98" height="1.98"/>
  <rect class="cls-3" x="15.86" y="25.61" width="1.98" height="2.04"/>
  <rect class="cls-3" x="15.86" y="27.65" width="1.98" height="1.91"/>
  <rect class="cls-3" x="13.86" y="29.55" width="1.98" height="1.98"/>
  <rect class="cls-3" x="11.88" y="31.53" width="1.98" height="1.92"/>
  <rect class="cls-3" x="9.89" y="31.53" width="1.98" height="1.92"/>
  <rect class="cls-3" x="9.89" y="33.45" width="1.98" height="1.98"/>
  <rect class="cls-4" x="25.64" y="23.65" width="1.98" height="1.98"/>
  <rect class="cls-4" x="23.66" y="25.64" width="1.98" height="1.95"/>
  <rect class="cls-4" x="25.64" y="25.64" width="1.98" height="1.94"/>
  <rect class="cls-1" x="17.84" y="23.67" width="3.86" height="3.91"/>
  <rect class="cls-1" x="21.62" y="23.67" width="2.05" height="1.96"/>
  <rect class="cls-1" x="17.84" y="27.58" width="1.92" height="1.98"/>
  <rect class="cls-1" x="15.86" y="29.57" width="1.98" height="1.92"/>
  <rect class="cls-1" x="13.86" y="31.53" width="2.08" height="1.92"/>
  <rect class="cls-1" x="15.86" y="31.48" width="1.98" height="1.98"/>
  <rect class="cls-5" x="11.88" y="33.45" width="5.97" height="2.01"/>
  <rect class="cls-4" x="9.91" y="35.41" width="5.93" height="3.94"/>
  <rect class="cls-4" x="15.83" y="35.41" width="2.02" height="1.98"/>
  <rect class="cls-2" x="7.88" y="39.35" width="5.94" height="1.98"/>
  <rect class="cls-5" x="7.91" y="41.32" width="9.85" height="1.98"/>
  <rect class="cls-1" x="19.77" y="29.55" width="1.98" height="2.01"/>
  <rect class="cls-1" x="19.77" y="31.56" width="1.98" height="1.98"/>
  <rect class="cls-4" x="7.87" y="37.38" width="2.06" height="1.98"/>
</svg>